<svg id="svg" version="1.1" xmlns="http://www.w3.org/2000/svg" xmlns:xlink="http://www.w3.org/1999/xlink" width="400" height="64.15525114155251" viewBox="0, 0, 400,64.15525114155251"><g id="svgg"><path id="path0" d="M292.293 2.083 C 292.343 2.346,292.484 2.500,292.676 2.500 C 293.126 2.500,293.244 2.178,292.892 1.911 C 292.420 1.554,292.203 1.616,292.293 2.083 M288.660 2.466 C 288.343 2.631,287.933 2.849,287.750 2.950 C 286.960 3.386,285.191 4.167,284.993 4.167 C 284.874 4.167,284.629 4.298,284.449 4.458 C 284.130 4.743,284.123 4.736,284.199 4.206 C 284.262 3.762,283.727 3.495,283.575 3.896 C 283.338 4.525,283.128 4.829,282.991 4.744 C 282.883 4.678,282.985 4.416,283.258 4.057 C 283.916 3.195,283.602 3.167,282.791 4.015 C 281.877 4.969,281.460 6.233,281.526 7.846 L 281.573 9.010 282.078 8.905 C 282.356 8.848,282.749 8.695,282.952 8.567 C 283.369 8.303,284.000 8.255,284.000 8.486 C 284.000 8.664,282.772 9.667,282.554 9.667 C 282.244 9.667,280.704 10.777,280.172 11.384 C 279.387 12.279,279.640 12.453,281.159 12.062 C 282.130 11.812,282.374 11.796,282.485 11.975 C 282.560 12.096,282.765 12.171,282.942 12.141 C 283.234 12.092,283.852 12.456,284.500 13.059 C 285.338 13.839,288.003 14.526,288.875 14.186 C 289.332 14.009,289.483 13.612,289.167 13.417 C 288.291 12.876,290.342 10.708,292.316 10.088 C 292.789 9.939,293.943 8.833,293.626 8.833 C 293.506 8.833,293.237 8.953,293.028 9.099 C 292.767 9.282,292.509 9.326,292.199 9.239 C 291.952 9.170,291.600 9.132,291.417 9.154 L 291.083 9.193 291.417 8.935 C 291.600 8.793,291.822 8.675,291.910 8.672 C 291.999 8.669,292.261 8.483,292.494 8.259 C 292.726 8.035,293.273 7.520,293.708 7.114 C 294.953 5.955,294.772 5.713,293.198 6.434 C 291.587 7.172,291.110 7.411,290.333 7.868 C 289.921 8.110,288.871 8.632,288.000 9.026 C 287.129 9.421,286.342 9.801,286.250 9.870 C 286.158 9.939,285.848 10.184,285.559 10.414 C 285.271 10.645,284.946 10.833,284.837 10.833 C 284.460 10.833,284.778 10.415,285.430 10.054 C 285.789 9.855,286.158 9.628,286.250 9.550 C 286.342 9.472,286.656 9.239,286.948 9.033 C 287.271 8.805,287.499 8.487,287.531 8.218 C 287.568 7.905,287.811 7.627,288.365 7.263 C 289.308 6.644,289.365 6.236,288.459 6.589 C 288.209 6.686,288.182 6.629,288.270 6.192 L 288.372 5.683 287.775 5.848 C 287.448 5.938,286.858 6.196,286.465 6.421 C 286.072 6.645,285.625 6.830,285.472 6.831 C 285.319 6.832,285.169 6.893,285.139 6.965 C 285.053 7.169,283.311 8.033,283.203 7.926 C 283.014 7.736,284.081 6.824,284.681 6.663 C 285.018 6.572,285.387 6.386,285.500 6.251 C 285.612 6.115,286.465 5.551,287.394 4.999 C 288.323 4.446,289.346 3.775,289.667 3.509 L 290.250 3.024 289.775 2.843 C 289.458 2.722,289.331 2.580,289.394 2.414 C 289.519 2.091,289.362 2.102,288.660 2.466 M294.875 3.172 C 294.428 3.352,294.422 3.393,294.769 3.923 C 295.105 4.434,295.600 4.449,296.009 3.958 C 296.690 3.142,296.051 2.699,294.875 3.172 M237.115 3.608 C 236.897 3.825,237.001 4.000,237.347 4.000 C 237.541 4.000,237.665 3.913,237.628 3.802 C 237.547 3.559,237.269 3.453,237.115 3.608 M74.607 5.782 C 74.419 5.970,74.492 6.167,74.750 6.167 C 74.887 6.167,75.000 6.096,75.000 6.010 C 75.000 5.800,74.740 5.649,74.607 5.782 M222.667 8.403 C 222.667 8.548,222.785 8.667,222.931 8.667 C 223.076 8.667,223.165 8.578,223.128 8.469 C 223.025 8.160,222.667 8.108,222.667 8.403 M284.833 8.833 C 284.833 9.035,284.944 9.167,285.115 9.167 C 285.528 9.167,284.586 10.111,284.075 10.209 L 283.681 10.284 284.008 9.869 C 284.243 9.571,284.286 9.394,284.162 9.244 C 284.038 9.095,284.065 8.959,284.256 8.768 C 284.618 8.406,284.833 8.431,284.833 8.833 M61.667 10.083 C 61.667 10.236,61.747 10.334,61.846 10.301 C 61.944 10.269,62.025 10.170,62.025 10.083 C 62.025 9.996,61.944 9.898,61.846 9.865 C 61.747 9.832,61.667 9.931,61.667 10.083 M288.358 13.750 C 288.358 13.837,288.278 13.935,288.179 13.968 C 288.081 14.001,288.000 13.903,288.000 13.750 C 288.000 13.597,288.081 13.499,288.179 13.532 C 288.278 13.565,288.358 13.663,288.358 13.750 M249.697 15.083 C 249.568 15.367,249.373 15.500,249.087 15.500 C 248.612 15.500,248.547 15.693,248.917 16.000 C 249.054 16.114,249.167 16.461,249.167 16.770 C 249.167 17.396,249.199 17.420,249.657 17.134 C 249.901 16.981,250.075 16.981,250.404 17.131 C 250.811 17.316,250.833 17.301,250.833 16.850 C 250.833 16.588,250.946 16.281,251.083 16.167 C 251.435 15.875,251.394 15.500,251.012 15.500 C 250.835 15.500,250.543 15.313,250.363 15.083 C 250.183 14.854,250.002 14.667,249.961 14.667 C 249.920 14.667,249.801 14.854,249.697 15.083 M85.937 15.925 C 85.882 16.066,85.607 16.263,85.325 16.361 L 84.813 16.540 85.150 16.899 C 85.385 17.149,85.456 17.381,85.384 17.658 C 85.294 18.002,85.323 18.038,85.598 17.921 C 85.999 17.750,86.332 17.749,86.723 17.916 C 86.981 18.026,87.021 17.980,86.974 17.623 C 86.942 17.375,87.050 17.054,87.235 16.850 C 87.521 16.533,87.525 16.500,87.268 16.500 C 87.112 16.500,86.797 16.313,86.568 16.083 C 86.078 15.593,86.065 15.590,85.937 15.925 M215.833 17.589 C 215.833 17.729,215.719 17.888,215.579 17.941 C 215.375 18.020,215.365 18.087,215.530 18.286 C 215.695 18.485,215.679 18.563,215.447 18.693 C 215.121 18.875,215.198 19.082,215.688 19.345 C 216.008 19.516,216.019 19.489,215.913 18.786 C 215.813 18.117,215.845 18.015,216.257 17.691 L 216.712 17.333 216.272 17.333 C 215.989 17.333,215.833 17.424,215.833 17.589 M55.558 18.078 C 55.610 18.213,55.578 18.368,55.488 18.424 C 55.398 18.480,55.345 18.651,55.371 18.804 C 55.400 18.982,55.312 19.075,55.127 19.060 C 54.967 19.048,54.875 19.098,54.921 19.173 C 54.966 19.247,54.872 19.343,54.710 19.385 C 54.475 19.446,54.487 19.465,54.771 19.481 C 54.966 19.491,55.219 19.612,55.333 19.750 C 55.671 20.156,55.756 20.043,55.694 19.270 C 55.647 18.679,55.703 18.494,55.984 18.297 C 56.368 18.028,56.285 17.833,55.788 17.833 C 55.572 17.833,55.496 17.915,55.558 18.078 M213.912 19.005 C 213.748 19.187,213.652 19.374,213.699 19.422 C 213.837 19.559,214.299 19.330,214.397 19.076 C 214.543 18.695,214.233 18.650,213.912 19.005 M53.750 19.667 C 53.584 19.850,53.502 20.000,53.568 20.000 C 53.806 20.000,54.333 19.651,54.333 19.494 C 54.333 19.233,54.073 19.310,53.750 19.667 M194.583 24.086 C 188.539 24.989,182.731 29.569,180.265 35.377 C 175.521 46.547,182.045 59.350,193.750 61.842 C 196.259 62.376,196.466 62.308,195.083 61.400 C 183.266 53.636,183.027 32.749,194.667 24.954 C 195.354 24.493,195.948 24.090,195.986 24.058 C 196.178 23.897,195.796 23.905,194.583 24.086 M5.000 27.044 C 3.784 27.518,2.179 29.096,1.740 30.250 C 1.367 31.232,1.153 48.116,1.491 49.945 C 1.824 51.744,3.141 53.485,4.833 54.361 L 5.583 54.750 17.667 54.750 L 29.750 54.750 29.691 52.000 C 29.659 50.487,29.598 49.194,29.556 49.125 C 29.515 49.056,24.891 48.999,19.282 48.999 C 13.673 48.998,8.690 48.950,8.208 48.892 L 7.333 48.787 7.333 40.643 L 7.333 32.500 18.505 32.500 C 28.094 32.500,29.690 32.466,29.770 32.259 C 29.820 32.127,29.799 30.833,29.723 29.384 L 29.583 26.750 17.750 26.719 C 6.015 26.687,5.909 26.690,5.000 27.044 M38.000 40.643 L 38.000 54.619 40.748 54.737 C 42.259 54.803,43.571 54.809,43.664 54.752 C 43.773 54.684,43.833 52.691,43.833 49.157 L 43.833 43.667 45.273 43.667 L 46.712 43.667 48.148 44.954 C 48.937 45.662,51.438 48.077,53.704 50.321 C 55.970 52.564,57.995 54.495,58.204 54.611 C 58.684 54.877,66.089 54.927,66.252 54.664 C 66.309 54.571,66.303 53.259,66.237 51.748 L 66.119 49.000 63.276 49.000 L 60.434 49.000 59.120 47.625 C 58.398 46.869,57.280 45.669,56.636 44.958 L 55.465 43.667 58.346 43.667 C 61.274 43.667,61.826 43.584,63.147 42.949 C 64.008 42.534,65.333 41.392,65.333 41.063 C 65.333 40.937,65.398 40.833,65.478 40.833 C 66.054 40.833,66.313 38.937,66.354 34.417 L 66.395 29.917 65.649 29.333 C 65.238 29.012,64.565 28.412,64.153 28.000 C 62.793 26.639,63.096 26.667,49.674 26.667 L 38.000 26.667 38.000 40.643 M74.534 33.125 C 74.589 40.288,74.534 39.917,75.766 41.439 C 76.379 42.196,77.749 43.149,78.678 43.465 C 79.115 43.613,81.589 43.667,87.947 43.667 L 96.620 43.667 96.728 44.542 C 96.788 45.023,96.885 46.223,96.944 47.208 L 97.051 49.000 85.775 49.000 L 74.500 49.000 74.500 51.807 L 74.500 54.615 76.875 54.723 C 81.041 54.914,98.098 54.855,98.617 54.648 C 100.618 53.851,101.846 52.716,102.469 51.089 C 102.844 50.110,103.002 33.756,102.688 28.500 L 102.583 26.750 99.792 26.704 L 97.000 26.659 97.000 32.246 L 97.000 37.833 89.708 37.832 C 85.698 37.831,81.910 37.783,81.292 37.725 L 80.167 37.618 80.165 33.268 C 80.165 30.875,80.116 28.410,80.058 27.792 L 79.952 26.667 77.219 26.667 L 74.485 26.667 74.534 33.125 M111.000 40.640 L 111.000 54.619 113.748 54.737 C 115.259 54.803,116.571 54.809,116.664 54.752 C 116.773 54.684,116.833 52.692,116.833 49.160 L 116.833 43.672 125.708 43.622 C 136.831 43.558,137.047 43.503,138.870 40.242 C 139.388 39.314,139.544 31.592,139.065 30.547 C 138.408 29.112,137.165 27.820,135.833 27.186 L 134.917 26.750 122.958 26.705 L 111.000 26.660 111.000 40.640 M147.500 29.474 L 147.500 32.282 149.776 32.391 C 151.028 32.451,153.540 32.500,155.358 32.500 L 158.664 32.500 158.707 43.542 L 158.750 54.583 161.329 54.717 C 162.747 54.791,164.079 54.808,164.287 54.756 L 164.667 54.660 164.667 43.580 L 164.667 32.500 170.250 32.500 L 175.833 32.500 175.833 30.858 C 175.833 29.956,175.785 28.643,175.726 27.942 L 175.618 26.667 161.559 26.667 L 147.500 26.667 147.500 29.474 M220.493 28.375 C 220.473 33.120,220.519 54.574,220.549 54.600 C 220.568 54.616,221.858 54.657,223.417 54.690 L 226.250 54.750 226.294 49.208 L 226.338 43.667 234.562 43.667 L 242.786 43.667 242.893 44.691 C 242.952 45.255,243.000 47.719,243.000 50.167 L 243.000 54.619 245.711 54.736 C 247.202 54.800,248.552 54.803,248.711 54.742 C 249.076 54.602,249.155 32.557,248.803 28.792 L 248.605 26.667 245.803 26.667 L 243.000 26.667 243.000 32.250 L 243.000 37.833 235.691 37.833 C 231.671 37.833,227.921 37.785,227.358 37.726 L 226.333 37.619 226.333 36.625 C 226.333 35.744,226.366 35.645,226.625 35.751 C 227.478 36.102,227.500 36.087,227.500 35.177 C 227.500 34.702,227.418 33.988,227.317 33.589 C 227.110 32.765,227.505 31.870,228.494 30.922 C 229.247 30.201,229.309 30.256,227.259 29.833 C 226.223 29.619,226.172 29.532,226.169 27.958 L 226.167 26.667 223.333 26.667 L 220.500 26.667 220.493 28.375 M257.036 38.625 L 257.083 50.583 257.659 51.645 C 258.290 52.809,259.203 53.671,260.545 54.371 L 261.417 54.826 271.012 54.830 C 281.108 54.834,281.660 54.797,282.513 54.060 C 282.658 53.935,282.833 53.833,282.903 53.833 C 283.427 53.833,284.714 52.065,285.184 50.700 C 285.575 49.564,285.667 32.413,285.302 28.708 L 285.101 26.667 282.300 26.667 L 279.500 26.667 279.500 37.833 L 279.500 49.000 272.191 49.000 C 268.171 49.000,264.421 48.952,263.858 48.893 L 262.833 48.786 262.833 39.001 C 262.833 33.620,262.785 28.643,262.726 27.942 L 262.618 26.667 259.804 26.667 L 256.989 26.667 257.036 38.625 M294.929 27.044 C 294.521 27.276,294.129 27.693,293.888 28.151 L 293.500 28.886 293.500 41.683 C 293.500 48.722,293.556 54.515,293.625 54.556 C 293.694 54.598,294.987 54.659,296.500 54.691 L 299.250 54.750 299.293 45.781 L 299.336 36.813 300.108 37.448 C 300.532 37.797,304.544 41.715,309.022 46.155 C 317.973 55.026,317.751 54.831,318.855 54.832 C 320.239 54.834,321.141 54.250,321.723 52.975 C 322.078 52.195,322.143 32.175,321.802 28.708 L 321.601 26.667 318.802 26.667 L 316.003 26.667 315.960 35.756 L 315.917 44.846 307.020 36.048 C 296.671 25.813,296.854 25.949,294.929 27.044 M333.750 27.022 C 332.260 27.625,331.246 28.565,330.536 30.000 L 330.083 30.917 330.083 40.667 L 330.083 50.417 330.457 51.220 C 330.970 52.322,332.474 53.851,333.572 54.389 L 334.479 54.833 346.226 54.833 C 352.687 54.833,358.091 54.788,358.236 54.732 C 358.563 54.607,358.577 53.848,358.308 51.042 L 358.112 49.000 347.931 48.999 C 342.331 48.998,337.356 48.950,336.875 48.892 L 336.000 48.787 336.000 40.645 L 336.000 32.502 347.208 32.460 L 358.417 32.417 358.478 31.917 C 358.511 31.642,358.445 30.348,358.331 29.042 L 358.124 26.667 346.353 26.676 C 334.936 26.685,334.558 26.695,333.750 27.022 M366.541 40.625 L 366.583 54.583 369.147 54.721 C 370.557 54.797,371.888 54.814,372.105 54.759 L 372.500 54.660 372.500 49.163 L 372.500 43.667 380.642 43.667 L 388.785 43.667 388.976 45.551 C 389.081 46.588,389.167 49.052,389.167 51.027 L 389.167 54.617 391.799 54.733 C 393.248 54.797,394.560 54.800,394.716 54.740 C 395.075 54.602,395.153 32.307,394.808 28.708 L 394.612 26.667 391.891 26.667 L 389.171 26.667 389.127 32.208 L 389.083 37.750 382.000 37.800 C 378.104 37.828,374.373 37.803,373.708 37.745 L 372.500 37.638 372.501 34.194 C 372.502 32.300,372.412 29.831,372.302 28.708 L 372.101 26.667 369.299 26.667 L 366.498 26.667 366.541 40.625 M60.309 34.385 C 60.414 35.421,60.500 36.621,60.500 37.051 L 60.500 37.833 53.042 37.832 C 48.940 37.831,45.190 37.783,44.708 37.725 L 43.833 37.620 43.833 35.060 L 43.833 32.500 51.976 32.500 L 60.118 32.500 60.309 34.385 M133.391 33.625 C 133.450 34.244,133.498 35.444,133.499 36.292 L 133.500 37.833 126.042 37.832 C 121.940 37.831,118.190 37.783,117.708 37.725 L 116.833 37.620 116.833 35.060 L 116.833 32.500 125.059 32.500 L 133.285 32.500 133.391 33.625 " stroke="none" fill="#e6e5e5" fill-rule="evenodd"></path><path id="path1" d="M0.000 32.000 L 0.000 64.000 200.000 64.000 L 400.000 64.000 400.000 32.000 L 400.000 0.000 200.000 0.000 L 0.000 0.000 0.000 32.000 M290.790 0.607 C 291.501 0.850,292.379 1.262,292.741 1.524 C 293.526 2.092,293.632 2.100,294.479 1.658 C 295.406 1.175,297.335 1.025,297.717 1.407 C 298.393 2.084,298.007 3.163,296.512 4.768 C 295.642 5.703,295.630 5.730,295.712 6.567 C 296.342 13.049,288.404 17.163,283.717 12.783 L 283.184 12.285 282.384 12.628 C 277.541 14.707,276.199 11.968,280.642 9.072 C 281.325 8.628,281.363 8.562,281.285 7.977 C 280.633 3.115,285.981 -1.032,290.790 0.607 M237.648 3.318 C 237.992 3.536,237.747 4.333,237.336 4.333 C 236.833 4.333,236.545 3.668,236.927 3.388 C 237.282 3.129,237.340 3.123,237.648 3.318 M75.252 5.972 C 75.205 6.094,75.167 6.268,75.167 6.359 C 75.167 6.651,74.422 6.427,74.363 6.117 C 74.269 5.625,74.633 5.309,75.016 5.549 C 75.193 5.659,75.299 5.849,75.252 5.972 M223.306 8.050 C 223.631 8.442,223.345 9.024,222.855 8.967 C 222.367 8.911,222.190 8.457,222.507 8.075 C 222.756 7.775,223.069 7.765,223.306 8.050 M62.133 9.700 C 62.524 10.091,62.371 10.500,61.833 10.500 C 61.463 10.500,61.333 10.422,61.333 10.200 C 61.333 9.911,61.627 9.500,61.833 9.500 C 61.888 9.500,62.023 9.590,62.133 9.700 M250.470 14.750 C 250.592 15.018,250.845 15.185,251.242 15.260 C 251.913 15.385,251.989 15.641,251.490 16.092 C 251.242 16.316,251.160 16.567,251.195 16.993 C 251.239 17.535,251.209 17.579,250.830 17.530 C 250.102 17.437,249.593 17.453,249.200 17.583 C 248.839 17.703,248.820 17.672,248.858 17.023 C 248.889 16.494,248.813 16.256,248.529 15.991 C 248.076 15.569,248.160 15.403,248.896 15.265 C 249.314 15.186,249.516 15.031,249.664 14.674 C 249.891 14.125,250.198 14.154,250.470 14.750 M86.583 15.667 C 86.762 16.013,86.966 16.167,87.244 16.167 C 87.824 16.167,87.924 16.465,87.497 16.920 C 87.229 17.205,87.155 17.431,87.230 17.731 C 87.347 18.195,87.074 18.474,86.785 18.185 C 86.555 17.955,85.722 17.942,85.583 18.167 C 85.372 18.508,85.167 18.315,85.167 17.776 C 85.167 17.428,85.040 17.104,84.829 16.913 C 84.400 16.525,84.484 16.272,85.079 16.167 C 85.337 16.121,85.631 15.933,85.732 15.750 C 85.891 15.463,86.164 15.178,86.287 15.169 C 86.308 15.168,86.441 15.392,86.583 15.667 M215.323 16.147 C 215.613 16.715,215.744 16.807,216.410 16.907 C 217.297 17.040,217.335 17.181,216.682 17.925 C 216.248 18.419,216.212 18.544,216.340 19.114 C 216.532 19.964,216.341 20.096,215.520 19.677 L 214.833 19.327 214.173 19.663 C 213.283 20.118,213.275 20.113,213.397 19.199 C 213.495 18.461,213.464 18.361,213.001 17.918 C 212.311 17.257,212.366 17.041,213.257 16.907 C 213.922 16.807,214.053 16.715,214.344 16.147 C 214.525 15.791,214.745 15.500,214.833 15.500 C 214.921 15.500,215.142 15.791,215.323 16.147 M55.112 16.906 C 55.333 17.369,55.508 17.500,56.025 17.588 C 56.850 17.727,56.917 17.863,56.401 18.348 C 56.059 18.669,55.988 18.877,56.023 19.450 C 56.078 20.350,56.005 20.410,55.271 20.060 C 54.701 19.788,54.633 19.788,54.072 20.055 C 53.318 20.415,53.168 20.316,53.336 19.573 C 53.453 19.051,53.409 18.908,52.979 18.419 C 52.444 17.808,52.465 17.762,53.350 17.602 C 53.811 17.519,54.023 17.359,54.263 16.914 C 54.653 16.190,54.770 16.189,55.112 16.906 M229.833 18.250 C 229.947 18.387,230.144 18.500,230.270 18.500 C 230.535 18.500,230.581 18.930,230.333 19.083 C 230.242 19.140,230.167 19.352,230.167 19.555 C 230.167 19.875,230.077 19.924,229.500 19.924 C 228.923 19.924,228.833 19.875,228.833 19.555 C 228.833 19.352,228.758 19.140,228.667 19.083 C 228.419 18.930,228.465 18.500,228.730 18.500 C 228.856 18.500,229.053 18.387,229.167 18.250 C 229.281 18.112,229.431 18.000,229.500 18.000 C 229.569 18.000,229.719 18.112,229.833 18.250 M68.667 19.337 C 68.667 19.396,68.611 19.500,68.544 19.567 C 68.476 19.635,68.420 19.813,68.419 19.963 C 68.414 20.549,67.254 20.353,67.060 19.733 C 66.800 18.902,67.513 18.377,68.207 18.889 C 68.460 19.076,68.667 19.278,68.667 19.337 M202.485 24.075 C 210.147 25.972,216.280 32.414,217.249 39.583 C 217.411 40.786,217.503 41.035,217.749 40.940 C 218.081 40.813,218.544 41.230,218.475 41.594 C 218.436 41.802,218.251 41.935,217.957 41.969 L 217.500 42.022 217.497 43.469 C 217.491 45.965,216.596 49.934,215.733 51.289 C 215.602 51.494,215.388 52.221,215.258 52.903 C 214.827 55.155,213.948 56.349,212.035 57.281 C 211.328 57.626,210.375 58.185,209.917 58.523 C 204.798 62.303,196.103 63.779,191.892 61.583 C 191.631 61.447,191.321 61.335,191.204 61.334 C 190.195 61.330,186.136 58.768,184.350 57.009 C 170.298 43.173,183.414 19.354,202.485 24.075 M63.904 27.137 C 64.561 28.423,65.111 28.828,66.478 29.031 C 67.779 29.224,67.906 29.384,67.250 30.000 C 66.706 30.511,66.699 30.483,67.667 31.612 C 69.099 33.281,69.191 33.709,69.133 38.486 C 69.076 43.160,68.988 43.521,67.542 44.967 C 66.167 46.342,65.405 46.559,61.687 46.633 L 58.457 46.698 59.516 47.766 L 60.574 48.833 63.190 48.833 C 66.354 48.833,66.333 48.827,66.333 49.758 L 66.333 50.481 67.042 50.532 L 67.750 50.583 67.801 51.375 L 67.852 52.167 68.509 52.167 L 69.167 52.167 69.167 55.000 L 69.167 57.833 65.366 57.833 L 61.565 57.833 60.824 57.361 C 60.417 57.101,57.758 54.592,54.917 51.785 L 49.750 46.682 48.208 46.674 L 46.667 46.667 46.667 52.250 L 46.667 57.833 43.833 57.833 L 41.000 57.833 41.000 57.092 L 41.000 56.352 40.208 56.301 L 39.417 56.250 39.366 55.467 L 39.316 54.684 38.533 54.634 L 37.750 54.583 37.707 40.620 L 37.665 26.657 50.278 26.672 C 61.618 26.685,62.907 26.660,63.040 26.423 C 63.242 26.062,63.438 26.224,63.904 27.137 M78.407 26.422 C 78.585 26.557,79.054 26.667,79.449 26.667 L 80.167 26.667 80.167 27.417 L 80.167 28.167 80.908 28.167 L 81.648 28.167 81.699 28.958 L 81.750 29.750 82.458 29.801 L 83.167 29.852 83.167 33.756 L 83.167 37.660 83.542 37.752 C 83.748 37.802,86.804 37.822,90.333 37.796 L 96.750 37.750 96.794 32.208 L 96.838 26.667 99.836 26.667 L 102.833 26.667 102.833 27.407 L 102.833 28.148 103.542 28.199 L 104.250 28.250 104.301 29.042 L 104.352 29.833 105.009 29.833 L 105.667 29.833 105.667 41.708 L 105.666 53.583 105.192 54.587 C 104.601 55.836,103.328 57.020,102.069 57.491 C 101.178 57.825,100.849 57.833,89.327 57.833 L 77.500 57.833 77.500 57.083 L 77.500 56.333 76.759 56.333 L 76.018 56.333 75.967 55.542 L 75.917 54.750 75.042 54.700 L 74.167 54.649 74.167 51.842 C 74.167 49.437,74.204 49.021,74.430 48.934 C 74.575 48.879,79.679 48.833,85.772 48.833 L 96.849 48.833 96.800 47.792 L 96.750 46.750 89.250 46.667 L 81.750 46.583 80.800 46.083 C 79.263 45.274,75.442 41.519,74.780 40.167 L 74.250 39.083 74.199 32.901 L 74.148 26.718 75.947 26.616 C 76.955 26.559,77.771 26.438,77.803 26.340 C 77.880 26.109,78.018 26.128,78.407 26.422 M225.875 26.665 C 226.306 26.667,226.333 26.711,226.333 27.407 L 226.333 28.148 227.042 28.199 C 227.748 28.250,227.750 28.252,227.833 29.000 C 227.916 29.745,227.922 29.751,228.640 29.833 L 229.364 29.917 229.390 33.833 L 229.417 37.750 236.125 37.794 L 242.833 37.837 242.833 32.252 L 242.833 26.667 245.833 26.667 L 248.833 26.667 248.833 27.407 L 248.833 28.148 249.542 28.199 L 250.250 28.250 250.301 29.042 L 250.352 29.833 251.092 29.833 L 251.833 29.833 251.833 43.833 L 251.833 57.833 249.000 57.833 L 246.167 57.833 246.167 57.092 L 246.167 56.352 245.375 56.301 L 244.583 56.250 244.533 55.458 L 244.482 54.667 243.658 54.667 L 242.833 54.667 242.833 50.667 L 242.833 46.667 236.083 46.667 L 229.333 46.667 229.333 52.250 L 229.333 57.833 226.500 57.833 L 223.667 57.833 223.667 57.083 L 223.667 56.333 222.842 56.333 L 222.018 56.333 221.967 55.542 L 221.917 54.750 221.125 54.699 L 220.333 54.648 220.333 42.850 C 220.333 31.263,220.327 31.046,220.000 30.750 C 219.817 30.584,219.667 30.356,219.667 30.244 C 219.667 30.131,219.817 30.000,220.000 29.952 C 220.304 29.872,220.333 29.724,220.333 28.271 L 220.333 26.677 222.292 26.618 C 223.369 26.585,224.512 26.581,224.833 26.610 C 225.154 26.639,225.623 26.664,225.875 26.665 M29.667 27.408 L 29.667 28.148 30.458 28.199 L 31.250 28.250 31.300 29.033 L 31.351 29.815 32.050 29.866 L 32.750 29.917 32.750 32.667 L 32.750 35.417 21.500 35.500 L 10.250 35.583 10.206 42.207 L 10.163 48.831 19.873 48.874 L 29.583 48.917 29.634 49.708 L 29.685 50.500 30.408 50.500 C 31.206 50.500,31.333 50.650,31.333 51.587 C 31.333 52.127,31.359 52.149,32.042 52.199 L 32.750 52.250 32.796 55.046 L 32.841 57.842 20.712 57.796 L 8.583 57.750 7.707 57.288 C 6.929 56.878,4.998 55.179,2.855 53.020 C 2.454 52.616,1.929 51.865,1.688 51.351 L 1.250 50.417 1.250 40.667 L 1.250 30.917 1.628 30.097 C 2.353 28.526,3.508 27.423,4.980 26.897 C 5.451 26.728,8.216 26.680,17.625 26.674 L 29.667 26.667 29.667 27.408 M136.082 27.080 C 136.821 27.446,137.554 28.140,139.756 30.557 C 142.249 33.293,142.389 33.745,142.305 38.804 C 142.228 43.463,141.666 44.697,138.973 46.115 L 138.083 46.583 128.917 46.667 L 119.750 46.750 119.706 52.292 L 119.662 57.833 116.831 57.833 L 114.000 57.833 114.000 57.092 L 114.000 56.352 113.208 56.301 L 112.417 56.250 112.366 55.467 L 112.316 54.684 111.533 54.634 L 110.750 54.583 110.707 40.622 L 110.665 26.660 123.041 26.705 C 134.986 26.748,135.440 26.761,136.082 27.080 M175.833 27.407 L 175.833 28.148 176.542 28.199 L 177.250 28.250 177.300 29.033 L 177.351 29.815 178.050 29.866 L 178.750 29.917 178.750 32.667 L 178.750 35.417 173.125 35.461 L 167.500 35.504 167.500 46.669 L 167.500 57.833 164.667 57.833 L 161.833 57.833 161.833 57.092 L 161.833 56.352 161.042 56.301 L 160.250 56.250 160.167 55.500 C 160.084 54.752,160.082 54.750,159.375 54.699 L 158.667 54.648 158.667 45.074 L 158.667 35.500 154.583 35.500 L 150.500 35.500 150.500 34.759 L 150.500 34.018 149.708 33.967 L 148.917 33.917 148.866 33.125 L 148.815 32.333 148.074 32.333 L 147.333 32.333 147.333 29.500 L 147.333 26.667 161.583 26.667 L 175.833 26.667 175.833 27.407 M241.303 27.150 C 241.423 27.496,241.618 27.666,241.986 27.747 C 242.580 27.877,242.640 28.155,242.167 28.583 C 241.960 28.770,241.833 29.097,241.833 29.442 C 241.833 30.063,241.615 30.145,241.040 29.743 C 240.765 29.550,240.591 29.529,240.347 29.659 C 239.688 30.012,239.453 29.887,239.573 29.248 C 239.649 28.842,239.604 28.550,239.425 28.294 C 239.022 27.719,239.104 27.500,239.722 27.500 C 240.143 27.500,240.331 27.400,240.500 27.083 C 240.795 26.531,241.096 26.556,241.303 27.150 M262.833 27.407 L 262.833 28.148 263.542 28.199 L 264.250 28.250 264.301 29.042 L 264.352 29.833 265.092 29.833 L 265.833 29.833 265.833 39.333 L 265.833 48.833 272.583 48.833 L 279.333 48.833 279.333 37.750 L 279.333 26.667 282.333 26.667 L 285.333 26.667 285.333 27.407 L 285.333 28.148 286.042 28.199 L 286.750 28.250 286.801 29.042 L 286.852 29.833 287.592 29.833 L 288.333 29.833 288.333 41.569 C 288.333 55.165,288.421 54.394,286.673 56.167 C 284.959 57.905,285.388 57.850,274.000 57.796 L 264.250 57.750 263.289 57.250 C 261.977 56.568,257.968 52.743,257.363 51.596 L 256.917 50.750 256.871 38.708 L 256.825 26.667 259.829 26.667 L 262.833 26.667 262.833 27.407 M297.761 26.837 C 298.008 26.931,302.142 30.925,306.948 35.712 C 311.754 40.500,315.757 44.442,315.843 44.472 C 315.940 44.507,316.000 41.113,316.000 35.597 L 316.000 26.667 319.000 26.667 L 322.000 26.667 322.000 27.407 C 322.000 28.141,322.004 28.147,322.625 28.198 C 323.244 28.250,323.250 28.258,323.301 29.042 L 323.352 29.833 324.092 29.833 L 324.833 29.833 324.833 42.724 L 324.833 55.614 324.446 56.349 C 323.732 57.703,321.818 58.280,320.569 57.518 C 319.985 57.162,316.544 53.831,308.140 45.483 L 302.333 39.716 302.333 48.775 L 302.333 57.833 299.500 57.833 L 296.667 57.833 296.667 57.083 L 296.667 56.333 295.833 56.333 L 295.000 56.333 295.000 55.500 L 295.000 54.667 294.164 54.667 L 293.327 54.667 293.372 41.515 L 293.417 28.364 293.933 27.724 C 294.759 26.698,296.398 26.319,297.761 26.837 M358.500 27.417 L 358.500 28.167 359.167 28.167 L 359.833 28.167 359.833 29.000 L 359.833 29.833 360.583 29.833 L 361.333 29.833 361.333 32.667 L 361.333 35.500 350.083 35.500 L 338.833 35.500 338.833 42.167 L 338.833 48.833 348.403 48.833 C 359.166 48.833,358.500 48.772,358.500 49.768 L 358.500 50.500 359.158 50.500 L 359.815 50.500 359.866 51.292 L 359.917 52.083 360.625 52.135 L 361.333 52.186 361.333 55.013 L 361.333 57.840 349.292 57.795 L 337.250 57.750 336.333 57.287 C 334.447 56.335,330.677 52.332,330.099 50.667 C 329.708 49.542,329.708 31.792,330.099 30.667 C 330.780 28.706,332.094 27.354,333.833 26.823 C 334.063 26.753,339.706 26.689,346.375 26.681 L 358.500 26.667 358.500 27.417 M372.467 27.449 C 372.516 28.123,372.540 28.149,373.134 28.199 C 373.742 28.249,373.751 28.260,373.801 29.042 L 373.852 29.833 374.592 29.833 L 375.333 29.833 375.333 33.747 L 375.333 37.660 375.708 37.752 C 375.915 37.802,378.933 37.822,382.417 37.796 L 388.750 37.750 388.794 32.208 L 388.838 26.667 391.919 26.667 L 395.000 26.667 395.000 27.407 C 395.000 28.141,395.004 28.147,395.625 28.198 C 396.244 28.250,396.250 28.258,396.301 29.042 L 396.352 29.833 397.092 29.833 L 397.833 29.833 397.833 43.833 L 397.833 57.833 395.000 57.833 L 392.167 57.833 392.167 57.092 L 392.167 56.352 391.375 56.301 L 390.583 56.250 390.500 55.500 L 390.417 54.750 389.625 54.699 L 388.833 54.648 388.833 50.658 L 388.833 46.667 382.083 46.667 L 375.333 46.667 375.333 52.250 L 375.333 57.833 372.500 57.833 L 369.667 57.833 369.667 57.083 L 369.667 56.333 368.842 56.333 L 368.018 56.333 367.967 55.542 L 367.917 54.750 367.125 54.699 L 366.333 54.648 366.333 40.654 L 366.333 26.659 369.375 26.705 L 372.417 26.750 372.467 27.449 M94.333 27.576 C 94.333 28.123,93.577 28.396,93.393 27.915 C 93.238 27.511,93.641 27.141,94.018 27.343 C 94.191 27.436,94.333 27.540,94.333 27.576 M46.667 36.566 C 46.667 37.939,46.079 37.833,53.680 37.833 L 60.167 37.833 60.167 36.667 L 60.167 35.500 53.417 35.500 L 46.667 35.500 46.667 36.566 M119.778 35.611 C 119.717 35.672,119.667 36.158,119.667 36.691 C 119.667 37.937,119.115 37.852,126.833 37.796 L 133.250 37.750 133.299 36.625 L 133.349 35.500 126.619 35.500 C 122.917 35.500,119.839 35.550,119.778 35.611 M73.501 39.899 C 73.409 39.991,73.333 40.227,73.333 40.423 C 73.333 40.728,73.243 40.776,72.708 40.758 C 72.262 40.742,72.083 40.661,72.081 40.474 C 72.079 40.330,71.978 40.090,71.854 39.942 C 71.660 39.708,71.686 39.651,72.049 39.513 C 72.279 39.426,72.516 39.275,72.576 39.179 C 72.645 39.067,72.864 39.136,73.177 39.367 C 73.507 39.611,73.614 39.786,73.501 39.899 " stroke="none" fill="#040404" fill-rule="evenodd"></path><path id="path2" d="M287.681 0.227 C 287.719 0.261,288.350 0.326,289.083 0.372 C 289.817 0.419,290.229 0.399,290.000 0.328 C 289.585 0.201,287.548 0.112,287.681 0.227 M284.482 1.437 C 283.988 1.769,283.358 2.313,283.084 2.645 C 282.695 3.116,282.801 3.054,283.563 2.368 C 284.101 1.883,284.813 1.343,285.146 1.167 C 285.478 0.992,285.667 0.845,285.565 0.841 C 285.463 0.837,284.976 1.105,284.482 1.437 M291.892 1.155 C 292.246 1.338,292.639 1.575,292.767 1.681 C 292.895 1.787,293.000 1.833,293.000 1.782 C 293.000 1.621,292.101 1.048,291.667 0.933 C 291.418 0.866,291.510 0.956,291.892 1.155 M295.289 1.348 C 294.944 1.429,294.475 1.618,294.247 1.767 C 294.019 1.917,293.679 1.998,293.490 1.949 C 293.210 1.876,293.183 1.903,293.343 2.095 C 293.450 2.224,293.603 2.289,293.684 2.240 C 293.764 2.190,293.785 2.266,293.730 2.408 C 293.584 2.788,294.162 2.732,294.667 2.316 L 295.083 1.974 294.583 2.073 C 294.111 2.166,294.101 2.158,294.407 1.919 C 294.766 1.639,295.580 1.570,295.417 1.833 C 295.279 2.056,295.469 2.044,296.376 1.771 C 297.108 1.550,297.142 1.555,297.234 1.896 C 297.390 2.477,297.348 2.667,297.064 2.667 C 296.872 2.667,296.821 2.768,296.886 3.019 C 296.937 3.212,296.911 3.456,296.828 3.560 C 296.746 3.665,296.443 4.031,296.155 4.375 C 295.868 4.719,295.713 5.000,295.811 5.000 C 295.911 5.000,295.942 5.129,295.882 5.292 C 295.824 5.452,296.145 5.177,296.596 4.681 C 298.947 2.096,298.369 0.622,295.289 1.348 M295.250 2.500 C 295.193 2.592,295.297 2.667,295.480 2.667 C 295.664 2.667,295.860 2.592,295.917 2.500 C 295.973 2.408,295.870 2.333,295.686 2.333 C 295.503 2.333,295.307 2.408,295.250 2.500 M291.816 3.002 C 291.393 3.074,290.737 3.328,290.357 3.568 C 289.572 4.064,289.467 4.234,290.094 3.996 C 290.329 3.906,290.746 3.833,291.019 3.833 C 291.617 3.833,292.422 3.444,292.558 3.089 C 292.612 2.949,292.640 2.842,292.620 2.853 C 292.600 2.864,292.238 2.931,291.816 3.002 M236.927 3.388 C 236.520 3.686,236.841 4.342,237.381 4.314 C 237.720 4.296,237.723 4.288,237.417 4.211 C 237.101 4.133,236.841 3.879,236.836 3.643 C 236.831 3.424,237.383 3.334,237.604 3.518 C 237.746 3.635,237.833 3.643,237.833 3.538 C 237.833 3.445,237.715 3.323,237.570 3.268 C 237.234 3.139,237.280 3.130,236.927 3.388 M281.825 4.606 C 281.733 4.848,281.688 5.077,281.726 5.115 C 281.764 5.153,281.875 4.955,281.972 4.675 C 282.189 4.053,282.058 3.993,281.825 4.606 M74.375 6.167 C 74.412 6.304,74.624 6.431,74.846 6.447 C 75.165 6.472,75.180 6.459,74.917 6.386 C 74.733 6.336,74.521 6.210,74.446 6.106 C 74.355 5.981,74.331 6.001,74.375 6.167 M222.507 8.075 C 222.183 8.465,222.368 8.911,222.876 8.969 C 223.128 8.998,223.333 8.953,223.333 8.868 C 223.333 8.782,223.146 8.749,222.917 8.793 C 222.577 8.858,222.500 8.806,222.500 8.514 C 222.500 8.027,222.988 7.863,223.274 8.255 C 223.398 8.425,223.500 8.489,223.500 8.399 C 223.500 7.904,222.830 7.686,222.507 8.075 M279.755 9.708 C 278.664 10.530,277.830 11.482,277.836 11.900 C 277.838 12.001,278.009 11.783,278.216 11.417 C 278.425 11.048,279.090 10.378,279.704 9.917 C 280.828 9.074,281.112 8.833,280.986 8.833 C 280.948 8.833,280.394 9.227,279.755 9.708 M61.533 9.700 C 61.306 9.927,61.262 10.500,61.472 10.500 C 61.548 10.500,61.604 10.331,61.597 10.125 C 61.578 9.610,62.038 9.642,62.184 10.167 C 62.281 10.516,62.303 10.528,62.317 10.242 C 62.332 9.922,62.058 9.500,61.833 9.500 C 61.778 9.500,61.643 9.590,61.533 9.700 M283.583 12.652 C 284.023 13.130,284.667 13.609,284.667 13.458 C 284.667 13.428,284.310 13.113,283.875 12.757 C 283.147 12.162,283.124 12.153,283.583 12.652 M277.978 12.715 C 278.521 13.389,280.573 13.407,282.076 12.752 C 282.558 12.541,282.538 12.535,281.667 12.622 C 281.162 12.672,280.624 12.777,280.469 12.856 C 279.985 13.104,278.604 13.020,278.162 12.716 C 277.777 12.451,277.765 12.451,277.978 12.715 M249.666 14.669 C 249.556 14.933,249.343 15.181,249.192 15.222 C 248.953 15.285,248.955 15.297,249.212 15.314 C 249.377 15.325,249.591 15.150,249.697 14.917 C 249.934 14.397,250.059 14.394,250.392 14.902 C 250.537 15.123,250.883 15.354,251.161 15.415 C 251.754 15.546,251.787 15.673,251.333 16.083 C 251.143 16.255,251.011 16.571,251.025 16.817 L 251.050 17.250 251.118 16.809 C 251.155 16.566,251.331 16.236,251.509 16.075 C 251.989 15.641,251.905 15.384,251.242 15.260 C 250.845 15.185,250.592 15.018,250.470 14.750 C 250.199 14.156,249.891 14.125,249.666 14.669 M287.167 14.503 C 287.580 14.632,289.453 14.722,289.319 14.606 C 289.281 14.573,288.688 14.507,288.000 14.460 C 287.295 14.411,286.932 14.430,287.167 14.503 M86.042 15.277 C 85.927 15.323,85.833 15.434,85.833 15.524 C 85.833 15.613,85.919 15.634,86.023 15.569 C 86.128 15.504,86.355 15.629,86.533 15.851 L 86.853 16.250 86.589 15.708 C 86.444 15.410,86.308 15.173,86.287 15.180 C 86.267 15.187,86.156 15.231,86.042 15.277 M248.256 15.490 C 248.203 15.576,248.326 15.802,248.529 15.991 C 248.810 16.253,248.889 16.495,248.859 17.001 C 248.817 17.712,248.912 17.775,249.568 17.477 C 249.887 17.331,250.106 17.337,250.502 17.501 C 250.806 17.627,251.080 17.653,251.168 17.566 C 251.401 17.332,249.761 17.194,249.285 17.407 C 249.026 17.523,248.992 17.463,249.027 16.942 C 249.056 16.509,248.962 16.231,248.686 15.937 C 248.330 15.558,248.325 15.525,248.610 15.451 C 248.870 15.384,248.874 15.369,248.635 15.353 C 248.480 15.342,248.309 15.404,248.256 15.490 M214.344 16.147 C 214.053 16.715,213.922 16.807,213.257 16.907 C 212.366 17.040,212.311 17.257,213.000 17.917 C 213.275 18.180,213.500 18.334,213.500 18.259 C 213.500 18.183,213.294 17.930,213.042 17.695 L 212.583 17.268 213.333 17.086 C 213.944 16.938,214.145 16.788,214.417 16.286 C 214.827 15.524,214.840 15.524,215.250 16.286 C 215.516 16.779,215.717 16.932,216.240 17.039 C 217.116 17.220,217.121 17.234,216.537 17.900 C 216.093 18.406,216.046 18.550,216.162 19.064 C 216.335 19.831,216.251 19.883,215.479 19.489 C 214.835 19.161,214.832 19.161,214.178 19.494 L 213.522 19.829 213.453 19.373 C 213.388 18.951,213.381 18.957,213.358 19.458 C 213.329 20.097,213.325 20.096,214.173 19.663 L 214.833 19.327 215.520 19.677 C 216.341 20.096,216.532 19.964,216.340 19.114 C 216.212 18.544,216.248 18.419,216.682 17.925 C 217.335 17.181,217.297 17.040,216.410 16.907 C 215.744 16.807,215.613 16.715,215.323 16.147 C 215.142 15.791,214.921 15.500,214.833 15.500 C 214.745 15.500,214.525 15.791,214.344 16.147 M84.576 16.346 C 84.515 16.444,84.613 16.688,84.795 16.887 C 84.976 17.087,85.165 17.362,85.216 17.500 C 85.288 17.698,85.310 17.689,85.320 17.458 C 85.327 17.298,85.182 17.015,84.996 16.829 L 84.659 16.492 85.038 16.340 L 85.417 16.188 85.052 16.177 C 84.851 16.171,84.637 16.247,84.576 16.346 M87.292 16.284 C 87.757 16.374,87.764 16.527,87.320 16.929 C 87.063 17.162,86.998 17.366,87.069 17.722 C 87.151 18.129,87.121 18.185,86.874 18.091 C 86.652 18.007,86.629 18.027,86.777 18.176 C 87.072 18.473,87.348 18.201,87.230 17.731 C 87.155 17.431,87.229 17.205,87.497 16.920 C 87.917 16.473,87.824 16.156,87.282 16.189 C 86.917 16.212,86.917 16.212,87.292 16.284 M54.431 16.607 C 54.348 16.822,54.374 16.840,54.550 16.694 C 54.727 16.547,54.833 16.628,55.044 17.071 C 55.265 17.535,55.434 17.654,56.004 17.751 L 56.696 17.868 56.253 18.331 C 55.907 18.691,55.824 18.917,55.878 19.355 L 55.947 19.917 55.973 19.321 C 55.991 18.927,56.139 18.594,56.412 18.338 C 56.917 17.863,56.847 17.726,56.025 17.588 C 55.508 17.500,55.333 17.369,55.112 16.906 C 54.813 16.280,54.593 16.183,54.431 16.607 M54.060 17.251 C 54.007 17.389,53.670 17.549,53.311 17.606 C 52.463 17.742,52.437 17.816,53.015 18.462 C 53.282 18.761,53.500 18.952,53.500 18.887 C 53.500 18.822,53.308 18.568,53.074 18.324 L 52.648 17.879 53.319 17.772 C 53.860 17.685,54.687 17.000,54.251 17.000 C 54.199 17.000,54.113 17.113,54.060 17.251 M229.167 18.250 C 229.053 18.387,228.856 18.500,228.730 18.500 C 228.466 18.500,228.418 18.930,228.665 19.082 C 228.755 19.138,228.795 19.086,228.753 18.967 C 228.617 18.583,229.456 18.099,229.749 18.392 C 229.884 18.527,230.089 18.672,230.205 18.714 C 230.374 18.776,230.375 18.836,230.208 19.012 C 230.094 19.134,230.000 19.361,230.000 19.518 C 230.000 19.716,229.903 19.777,229.680 19.719 C 229.504 19.673,229.244 19.700,229.102 19.780 C 228.922 19.880,229.044 19.924,229.505 19.924 C 230.077 19.924,230.167 19.874,230.167 19.555 C 230.167 19.352,230.242 19.140,230.333 19.083 C 230.581 18.930,230.535 18.500,230.270 18.500 C 230.144 18.500,229.947 18.387,229.833 18.250 C 229.719 18.112,229.569 18.000,229.500 18.000 C 229.431 18.000,229.281 18.112,229.167 18.250 M67.297 18.896 C 66.890 19.223,66.874 19.282,67.089 19.667 C 67.341 20.118,67.429 19.992,67.184 19.531 C 66.915 19.024,67.660 18.623,68.143 19.015 C 68.365 19.194,68.474 19.407,68.404 19.521 C 68.327 19.645,68.353 19.674,68.474 19.599 C 68.769 19.417,68.709 19.261,68.202 18.886 L 67.737 18.542 67.297 18.896 M53.317 19.632 C 53.197 20.330,53.334 20.407,54.072 20.055 C 54.633 19.788,54.701 19.788,55.274 20.061 C 55.727 20.277,55.929 20.303,56.066 20.162 C 56.201 20.022,56.184 19.986,56.000 20.025 C 55.862 20.054,55.501 19.974,55.196 19.847 C 54.713 19.646,54.571 19.650,54.081 19.884 L 53.520 20.152 53.466 19.618 L 53.412 19.083 53.317 19.632 M68.333 20.011 C 68.333 20.113,68.192 20.144,68.003 20.084 C 67.822 20.027,67.552 20.047,67.404 20.130 C 67.210 20.239,67.310 20.275,67.764 20.259 C 68.245 20.242,68.885 19.833,68.431 19.833 C 68.377 19.833,68.333 19.913,68.333 20.011 M196.750 23.683 C 197.117 23.755,197.979 23.819,198.667 23.825 C 202.334 23.857,206.380 25.234,209.792 27.613 C 209.998 27.756,210.167 27.830,210.167 27.777 C 210.167 27.598,208.229 26.360,206.898 25.689 C 204.059 24.259,201.807 23.703,198.485 23.616 C 197.050 23.578,196.352 23.605,196.750 23.683 M193.500 24.000 C 193.170 24.106,193.153 24.133,193.417 24.133 C 193.600 24.133,193.938 24.073,194.167 24.000 C 194.497 23.894,194.514 23.867,194.250 23.867 C 194.067 23.867,193.729 23.927,193.500 24.000 M191.365 24.614 C 190.969 24.754,190.675 24.898,190.711 24.934 C 190.787 25.010,192.333 24.502,192.333 24.401 C 192.333 24.297,192.144 24.338,191.365 24.614 M189.833 25.250 C 189.604 25.381,189.492 25.488,189.583 25.488 C 189.675 25.488,189.938 25.381,190.167 25.250 C 190.396 25.119,190.508 25.012,190.417 25.012 C 190.325 25.012,190.063 25.119,189.833 25.250 M188.792 25.762 C 188.169 26.100,188.207 26.241,188.833 25.917 C 189.108 25.774,189.333 25.623,189.333 25.579 C 189.333 25.472,189.315 25.478,188.792 25.762 M77.833 26.333 C 77.833 26.425,77.552 26.512,77.208 26.527 L 76.583 26.553 77.136 26.621 C 77.440 26.659,77.789 26.606,77.913 26.503 C 78.067 26.375,78.171 26.371,78.245 26.492 C 78.304 26.588,78.438 26.667,78.542 26.667 C 78.645 26.667,78.585 26.557,78.407 26.422 C 78.025 26.133,77.833 26.103,77.833 26.333 M37.746 40.583 C 37.746 48.283,37.767 51.409,37.792 47.529 C 37.817 43.649,37.817 37.349,37.792 33.529 C 37.767 29.709,37.746 32.883,37.746 40.583 M74.242 32.583 C 74.242 35.883,74.264 37.257,74.291 35.636 C 74.319 34.015,74.319 31.315,74.291 29.636 C 74.264 27.957,74.242 29.283,74.242 32.583 M102.733 27.417 L 102.750 28.250 103.443 28.301 L 104.137 28.351 104.246 29.884 C 104.306 30.727,104.331 36.067,104.302 41.750 L 104.250 52.083 103.815 53.000 C 103.273 54.143,102.198 55.211,101.001 55.799 L 100.083 56.250 89.500 56.302 C 83.679 56.330,78.298 56.304,77.542 56.245 L 76.167 56.137 76.167 55.495 C 76.167 55.142,76.110 54.818,76.042 54.776 C 75.973 54.733,75.943 55.066,75.974 55.516 L 76.032 56.333 76.766 56.333 L 77.500 56.333 77.500 57.083 L 77.500 57.833 89.327 57.833 C 100.849 57.833,101.178 57.825,102.069 57.491 C 103.328 57.020,104.601 55.836,105.192 54.587 L 105.666 53.583 105.667 41.708 L 105.667 29.833 105.009 29.833 L 104.352 29.833 104.301 29.042 L 104.250 28.250 103.550 28.199 L 102.851 28.148 102.783 27.366 L 102.716 26.583 102.733 27.417 M110.746 40.583 C 110.746 48.283,110.767 51.409,110.792 47.529 C 110.817 43.649,110.817 37.349,110.792 33.529 C 110.767 29.709,110.746 32.883,110.746 40.583 M226.233 27.417 L 226.250 28.250 226.958 28.301 L 227.667 28.352 227.667 29.093 C 227.667 29.500,227.726 29.833,227.799 29.833 C 227.872 29.833,227.891 29.477,227.841 29.042 L 227.750 28.250 227.050 28.199 L 226.351 28.148 226.283 27.366 L 226.216 26.583 226.233 27.417 M240.540 26.998 C 240.233 27.489,240.290 27.637,240.610 27.180 C 240.878 26.797,240.893 26.794,241.132 27.101 C 241.361 27.395,241.371 27.396,241.272 27.111 C 241.214 26.943,241.167 26.775,241.167 26.736 C 241.167 26.527,240.717 26.714,240.540 26.998 M242.908 32.167 C 242.908 35.237,242.931 36.494,242.958 34.958 C 242.986 33.423,242.986 30.910,242.958 29.375 C 242.931 27.840,242.908 29.096,242.908 32.167 M248.733 27.417 L 248.750 28.250 249.435 28.300 L 250.120 28.350 250.226 29.467 C 250.284 30.081,250.331 36.377,250.332 43.458 L 250.333 56.333 248.625 56.332 C 247.685 56.331,246.414 56.283,245.800 56.225 L 244.683 56.120 244.616 55.352 L 244.549 54.583 244.566 55.417 L 244.583 56.250 245.375 56.301 L 246.167 56.352 246.167 57.092 L 246.167 57.833 249.000 57.833 L 251.833 57.833 251.833 43.833 L 251.833 29.833 251.092 29.833 L 250.352 29.833 250.301 29.042 L 250.250 28.250 249.550 28.199 L 248.851 28.148 248.783 27.366 L 248.716 26.583 248.733 27.417 M262.733 27.417 L 262.750 28.250 263.435 28.300 L 264.120 28.350 264.226 29.467 C 264.284 30.081,264.331 34.683,264.332 39.693 L 264.333 48.803 265.708 48.911 C 266.465 48.970,269.858 48.995,273.250 48.967 L 279.417 48.917 279.418 37.750 L 279.420 26.583 279.376 37.708 L 279.331 48.833 272.582 48.833 L 265.833 48.833 265.833 39.333 L 265.833 29.833 265.092 29.833 L 264.352 29.833 264.301 29.042 L 264.250 28.250 263.550 28.199 L 262.851 28.148 262.783 27.366 L 262.716 26.583 262.733 27.417 M321.863 27.458 L 321.833 28.333 322.476 28.333 L 323.118 28.333 323.225 29.458 C 323.283 30.077,323.331 35.929,323.332 42.462 L 323.333 54.340 322.917 55.000 C 322.393 55.830,321.434 56.333,320.377 56.333 C 319.487 56.333,319.167 56.163,317.905 55.017 C 317.439 54.595,317.739 54.914,318.571 55.725 C 321.321 58.409,323.251 58.613,324.446 56.349 L 324.833 55.614 324.833 42.724 L 324.833 29.833 324.092 29.833 L 323.352 29.833 323.301 29.042 C 323.251 28.260,323.242 28.249,322.634 28.199 C 322.028 28.148,322.016 28.134,321.955 27.365 L 321.893 26.583 321.863 27.458 M358.400 27.417 C 358.417 28.250,358.417 28.250,359.018 28.300 L 359.620 28.351 359.726 29.467 C 359.784 30.081,359.831 31.352,359.832 32.292 L 359.833 34.000 348.583 34.000 L 337.333 34.000 337.333 41.402 L 337.333 48.803 338.708 48.911 C 339.465 48.969,344.171 48.994,349.167 48.966 L 358.250 48.914 348.542 48.874 L 338.833 48.833 338.833 42.167 L 338.833 35.500 350.083 35.500 L 361.333 35.500 361.333 32.667 L 361.333 29.833 360.583 29.833 L 359.833 29.833 359.833 29.000 L 359.833 28.167 359.176 28.167 L 358.518 28.167 358.450 27.375 L 358.383 26.583 358.400 27.417 M366.413 40.667 C 366.413 48.413,366.433 51.581,366.458 47.708 C 366.483 43.835,366.483 37.498,366.458 33.625 C 366.433 29.752,366.413 32.921,366.413 40.667 M388.796 32.250 C 388.771 35.321,388.806 37.833,388.875 37.833 C 388.944 37.833,389.000 35.321,389.000 32.250 C 389.000 29.179,388.964 26.667,388.921 26.667 C 388.878 26.667,388.821 29.179,388.796 32.250 M394.863 27.458 L 394.833 28.333 395.476 28.333 L 396.118 28.333 396.225 29.458 C 396.283 30.077,396.331 36.377,396.332 43.458 L 396.333 56.333 394.625 56.332 C 393.685 56.331,392.410 56.283,391.792 56.225 L 390.667 56.118 390.667 55.393 C 390.667 54.993,390.607 54.667,390.534 54.667 C 390.461 54.667,390.442 55.023,390.492 55.458 L 390.583 56.250 391.375 56.301 L 392.167 56.352 392.167 57.092 L 392.167 57.833 395.000 57.833 L 397.833 57.833 397.833 43.833 L 397.833 29.833 397.092 29.833 L 396.352 29.833 396.301 29.042 C 396.251 28.260,396.242 28.249,395.634 28.199 C 395.028 28.148,395.016 28.134,394.955 27.365 L 394.893 26.583 394.863 27.458 M294.240 27.375 L 293.750 27.917 294.333 27.417 C 294.653 27.142,294.947 26.898,294.985 26.875 C 295.024 26.852,294.982 26.833,294.892 26.833 C 294.802 26.833,294.509 27.077,294.240 27.375 M372.362 27.542 L 372.333 28.333 372.976 28.333 L 373.618 28.333 373.725 29.458 C 373.783 30.077,373.831 32.177,373.832 34.125 L 373.833 37.667 374.375 37.669 C 374.673 37.670,375.104 37.709,375.333 37.754 C 375.563 37.800,375.656 37.792,375.542 37.738 C 375.384 37.663,375.333 36.694,375.333 33.736 L 375.333 29.833 374.592 29.833 L 373.852 29.833 373.801 29.042 C 373.751 28.260,373.742 28.249,373.134 28.199 C 372.542 28.150,372.516 28.121,372.455 27.449 L 372.392 26.750 372.362 27.542 M93.502 27.415 C 93.231 27.741,93.406 28.167,93.810 28.167 C 94.191 28.167,94.421 27.687,94.162 27.430 C 94.031 27.300,94.009 27.327,94.085 27.525 C 94.212 27.860,93.873 28.107,93.626 27.859 C 93.499 27.732,93.509 27.606,93.661 27.424 C 93.778 27.282,93.837 27.167,93.791 27.167 C 93.745 27.167,93.615 27.278,93.502 27.415 M331.699 28.108 L 330.917 28.883 331.750 28.163 C 332.208 27.767,332.615 27.418,332.653 27.388 C 332.691 27.358,332.668 27.333,332.601 27.333 C 332.535 27.333,332.129 27.682,331.699 28.108 M239.169 27.792 C 239.171 27.979,239.216 28.015,239.294 27.892 C 239.362 27.786,239.604 27.665,239.833 27.623 C 240.186 27.557,240.167 27.542,239.708 27.523 C 239.294 27.505,239.167 27.569,239.169 27.792 M2.906 28.208 L 2.417 28.750 2.958 28.260 C 3.463 27.804,3.577 27.667,3.448 27.667 C 3.419 27.667,3.175 27.910,2.906 28.208 M137.500 28.250 C 137.811 28.571,138.103 28.833,138.149 28.833 C 138.195 28.833,137.978 28.571,137.667 28.250 C 137.356 27.929,137.064 27.667,137.018 27.667 C 136.972 27.667,137.189 27.929,137.500 28.250 M64.658 28.375 C 64.974 28.719,65.349 28.994,65.491 28.987 C 65.715 28.975,65.716 28.961,65.500 28.883 C 65.362 28.833,64.987 28.558,64.667 28.271 L 64.083 27.750 64.658 28.375 M184.207 29.208 C 183.460 29.965,182.684 30.808,182.481 31.083 C 182.278 31.358,182.221 31.471,182.355 31.333 C 184.448 29.178,185.712 27.833,185.646 27.833 C 185.601 27.833,184.953 28.452,184.207 29.208 M210.339 27.921 C 210.336 28.016,210.826 28.578,211.427 29.171 C 213.433 31.149,215.661 34.327,215.666 35.217 C 215.666 35.291,215.811 35.669,215.988 36.057 C 216.164 36.444,216.362 36.984,216.427 37.256 C 216.493 37.528,216.602 37.825,216.671 37.917 C 216.740 38.008,216.850 38.646,216.917 39.333 C 216.983 40.021,217.108 40.671,217.195 40.778 C 217.834 41.570,216.902 48.091,215.815 50.428 C 215.463 51.185,215.391 51.675,215.675 51.392 C 216.409 50.657,217.500 45.892,217.500 43.416 L 217.500 42.022 217.957 41.969 C 218.251 41.935,218.436 41.802,218.475 41.594 C 218.544 41.230,218.081 40.813,217.749 40.940 C 217.503 41.035,217.411 40.786,217.249 39.583 C 216.967 37.499,215.317 33.533,213.977 31.719 C 213.178 30.637,210.348 27.683,210.339 27.921 M242.261 28.052 C 242.307 28.173,242.192 28.409,242.006 28.578 C 241.816 28.750,241.667 29.094,241.667 29.359 C 241.667 29.888,241.631 29.907,241.114 29.657 C 240.762 29.488,240.761 29.490,241.074 29.741 C 241.591 30.156,241.833 30.061,241.833 29.442 C 241.833 29.097,241.960 28.770,242.167 28.583 C 242.516 28.267,242.615 27.833,242.339 27.833 C 242.250 27.833,242.215 27.932,242.261 28.052 M30.292 28.283 L 31.000 28.352 31.000 29.060 C 31.000 29.448,31.078 29.844,31.172 29.939 C 31.277 30.044,31.326 30.861,31.297 32.014 L 31.250 33.917 19.958 33.959 L 8.667 34.002 8.667 41.402 L 8.667 48.802 10.208 48.910 C 11.056 48.970,15.762 48.995,20.667 48.966 L 29.583 48.914 19.873 48.874 L 10.163 48.833 10.206 42.208 L 10.250 35.583 21.500 35.500 L 32.750 35.417 32.750 32.667 L 32.750 29.917 32.050 29.866 L 31.351 29.815 31.300 29.033 L 31.250 28.250 30.417 28.232 C 29.669 28.216,29.656 28.221,30.292 28.283 M80.544 28.286 C 80.797 28.325,81.172 28.324,81.377 28.284 C 81.582 28.244,81.375 28.213,80.917 28.214 C 80.458 28.216,80.291 28.248,80.544 28.286 M176.484 28.284 L 177.137 28.351 177.248 29.884 C 177.308 30.727,177.334 31.979,177.304 32.667 L 177.250 33.917 171.625 33.961 L 166.000 34.004 166.000 45.169 L 166.000 56.333 164.292 56.332 C 163.352 56.331,162.077 56.283,161.458 56.225 L 160.333 56.118 160.333 55.393 C 160.333 54.993,160.274 54.667,160.201 54.667 C 160.128 54.667,160.109 55.023,160.159 55.458 L 160.250 56.250 161.042 56.301 L 161.833 56.352 161.833 57.092 L 161.833 57.833 164.667 57.833 L 167.500 57.833 167.500 46.669 L 167.500 35.504 173.125 35.461 L 178.750 35.417 178.750 32.667 L 178.750 29.917 178.050 29.866 L 177.351 29.815 177.300 29.033 L 177.250 28.250 176.540 28.234 L 175.831 28.217 176.484 28.284 M239.468 28.362 C 239.612 28.546,239.648 28.846,239.575 29.237 C 239.455 29.874,239.763 30.045,240.333 29.659 C 240.518 29.534,240.460 29.519,240.114 29.599 C 239.655 29.706,239.646 29.695,239.751 29.135 C 239.834 28.692,239.790 28.508,239.554 28.323 C 239.279 28.106,239.271 28.110,239.468 28.362 M285.975 28.284 L 286.620 28.350 286.726 29.467 C 286.988 32.245,286.845 51.518,286.555 52.438 C 286.119 53.819,285.063 55.033,283.721 55.693 L 282.591 56.250 272.809 56.296 L 263.027 56.341 262.138 55.942 C 261.650 55.722,260.894 55.182,260.458 54.741 C 260.023 54.300,259.667 54.015,259.667 54.108 C 259.667 54.201,260.376 54.915,261.242 55.696 C 263.775 57.977,262.900 57.833,274.250 57.833 C 285.385 57.833,284.969 57.889,286.673 56.165 C 288.421 54.395,288.333 55.166,288.333 41.569 L 288.333 29.833 287.592 29.833 L 286.852 29.833 286.801 29.042 L 286.750 28.250 286.040 28.234 C 285.342 28.218,285.341 28.218,285.975 28.284 M293.413 41.667 C 293.413 48.862,293.433 51.806,293.458 48.208 C 293.483 44.610,293.483 38.723,293.458 35.125 C 293.433 31.527,293.413 34.471,293.413 41.667 M307.785 36.660 C 312.204 41.102,315.841 44.702,315.868 44.660 C 315.895 44.618,312.279 40.984,307.833 36.584 L 299.750 28.585 307.785 36.660 M67.330 29.328 C 67.537 29.459,67.503 29.562,67.119 29.963 L 66.661 30.441 67.205 31.497 L 67.750 32.552 67.803 36.277 C 67.905 43.423,66.579 44.957,60.130 45.155 L 57.010 45.250 58.769 47.125 L 60.528 49.000 63.306 48.963 L 66.083 48.926 63.333 48.875 L 60.584 48.825 59.536 47.787 L 58.489 46.750 61.703 46.658 C 65.402 46.552,66.183 46.325,67.542 44.967 C 68.988 43.521,69.076 43.160,69.133 38.486 C 69.191 33.709,69.099 33.281,67.667 31.612 C 66.699 30.483,66.706 30.511,67.250 30.000 C 67.735 29.544,67.792 29.166,67.375 29.169 C 67.129 29.171,67.122 29.196,67.330 29.328 M138.833 29.750 C 139.144 30.071,139.436 30.333,139.482 30.333 C 139.528 30.333,139.311 30.071,139.000 29.750 C 138.689 29.429,138.397 29.167,138.351 29.167 C 138.305 29.167,138.522 29.429,138.833 29.750 M81.800 33.662 C 81.828 35.813,81.866 37.584,81.884 37.596 C 81.902 37.609,82.292 37.662,82.750 37.715 C 83.208 37.767,83.490 37.771,83.375 37.724 C 83.217 37.659,83.167 36.705,83.167 33.753 L 83.167 29.867 82.458 29.808 L 81.750 29.750 81.800 33.662 M228.750 29.945 C 229.391 30.113,229.367 30.312,228.603 31.129 L 227.833 31.951 227.833 34.809 L 227.833 37.667 228.403 37.667 C 228.716 37.667,229.073 37.705,229.195 37.752 C 229.376 37.821,229.411 37.115,229.388 33.877 L 229.359 29.917 228.888 29.887 C 228.586 29.868,228.537 29.888,228.750 29.945 M139.667 30.558 C 139.667 30.610,139.850 30.921,140.073 31.251 C 140.969 32.570,141.187 39.794,140.384 41.539 C 138.807 44.968,138.081 45.164,126.961 45.165 L 118.338 45.167 118.294 50.708 L 118.250 56.250 116.833 56.303 C 116.054 56.333,114.798 56.307,114.042 56.247 L 112.667 56.137 112.667 55.495 C 112.667 55.142,112.587 54.804,112.490 54.744 C 112.373 54.671,112.331 54.906,112.365 55.442 L 112.417 56.250 113.208 56.301 L 114.000 56.352 114.000 57.092 L 114.000 57.833 116.831 57.833 L 119.662 57.833 119.706 52.292 L 119.750 46.750 128.917 46.667 L 138.083 46.583 138.973 46.115 C 141.666 44.697,142.228 43.463,142.305 38.804 C 142.366 35.112,142.239 34.014,141.619 32.882 C 141.279 32.262,139.667 30.342,139.667 30.558 M329.911 40.667 C 329.911 45.938,329.932 48.094,329.958 45.458 C 329.984 42.823,329.984 38.510,329.958 35.875 C 329.932 33.240,329.911 35.396,329.911 40.667 M1.244 40.667 C 1.244 45.663,1.266 47.706,1.292 45.208 C 1.317 42.710,1.317 38.623,1.292 36.125 C 1.266 33.627,1.244 35.671,1.244 40.667 M148.865 33.109 L 148.917 33.917 149.708 33.967 L 150.500 34.018 150.500 34.759 L 150.500 35.500 154.583 35.500 L 158.667 35.500 158.667 34.750 L 158.667 34.000 154.941 34.000 C 152.892 34.000,150.755 33.952,150.191 33.893 L 149.167 33.786 149.167 33.153 C 149.167 32.805,149.087 32.471,148.990 32.411 C 148.873 32.338,148.831 32.572,148.865 33.109 M180.325 34.516 C 180.134 34.892,180.005 35.228,180.040 35.262 C 180.075 35.297,180.267 34.990,180.466 34.580 C 180.921 33.645,180.798 33.590,180.325 34.516 M45.167 35.833 L 45.167 37.667 45.708 37.669 C 46.006 37.670,46.438 37.709,46.667 37.754 C 46.896 37.800,46.990 37.792,46.875 37.738 C 46.740 37.674,46.667 37.261,46.667 36.569 L 46.667 35.500 53.417 35.500 L 60.167 35.500 60.193 36.708 C 60.208 37.373,60.252 37.654,60.292 37.333 C 60.331 37.012,60.312 36.131,60.250 35.375 L 60.137 34.000 52.652 34.000 L 45.167 34.000 45.167 35.833 M118.333 35.833 L 118.333 37.667 118.792 37.669 C 119.044 37.670,119.438 37.714,119.667 37.767 C 119.949 37.831,120.013 37.812,119.866 37.707 C 119.718 37.602,119.665 37.237,119.699 36.568 L 119.750 35.583 126.542 35.540 L 133.333 35.496 133.333 34.748 L 133.333 34.000 125.833 34.000 L 118.333 34.000 118.333 35.833 M300.833 47.333 L 300.833 56.333 299.125 56.332 C 298.185 56.331,296.914 56.284,296.300 56.226 L 295.184 56.120 295.121 55.435 L 295.058 54.750 295.029 55.542 L 295.000 56.333 295.833 56.333 L 296.667 56.333 296.667 57.083 L 296.667 57.833 299.500 57.833 L 302.333 57.833 302.333 48.743 L 302.333 39.654 301.680 38.993 C 301.320 38.630,300.983 38.333,300.930 38.333 C 300.877 38.333,300.833 42.383,300.833 47.333 M72.495 39.256 C 72.384 39.390,72.194 39.500,72.073 39.500 C 71.711 39.500,71.651 39.780,71.960 40.023 C 72.222 40.228,72.228 40.222,72.021 39.958 C 71.825 39.709,71.828 39.667,72.043 39.667 C 72.180 39.667,72.384 39.556,72.496 39.421 C 72.725 39.145,73.557 39.599,73.374 39.901 C 73.323 39.984,73.368 39.998,73.474 39.933 C 73.732 39.773,73.735 39.780,73.182 39.371 C 72.762 39.061,72.670 39.045,72.495 39.256 M178.539 40.667 C 178.539 40.987,178.573 41.119,178.615 40.958 C 178.657 40.798,178.657 40.535,178.615 40.375 C 178.573 40.215,178.539 40.346,178.539 40.667 M72.003 40.448 C 71.999 40.763,72.304 40.868,72.624 40.663 C 72.893 40.490,72.891 40.483,72.597 40.576 C 72.416 40.634,72.218 40.585,72.141 40.464 C 72.044 40.312,72.004 40.307,72.003 40.448 M218.333 41.518 C 218.333 41.716,218.216 41.833,218.018 41.833 C 217.645 41.833,217.452 41.448,217.700 41.200 C 217.948 40.952,218.333 41.145,218.333 41.518 M77.176 42.914 C 77.788 43.754,80.008 45.699,80.833 46.118 L 81.750 46.583 89.292 46.667 L 96.834 46.750 96.833 45.958 L 96.833 45.167 88.958 45.165 C 79.589 45.164,79.620 45.169,77.937 43.548 C 77.386 43.017,77.044 42.732,77.176 42.914 M45.167 50.750 L 45.167 56.333 43.458 56.332 C 42.519 56.331,41.247 56.283,40.633 56.225 L 39.516 56.120 39.453 55.435 C 39.389 54.750,39.389 54.750,39.403 55.500 L 39.417 56.250 40.208 56.301 L 41.000 56.352 41.000 57.092 L 41.000 57.833 43.833 57.833 L 46.667 57.833 46.667 52.250 L 46.667 46.667 48.207 46.667 L 49.747 46.667 53.674 50.542 C 55.834 52.673,55.516 52.335,52.967 49.792 L 48.333 45.167 46.750 45.167 L 45.167 45.167 45.167 50.750 M227.794 50.708 L 227.750 56.250 226.500 56.304 C 225.813 56.334,224.556 56.308,223.708 56.247 L 222.167 56.136 222.167 55.494 C 222.167 55.142,222.110 54.818,222.042 54.776 C 221.973 54.733,221.943 55.066,221.974 55.516 L 222.032 56.333 222.849 56.333 L 223.667 56.333 223.667 57.083 L 223.667 57.833 226.500 57.833 L 229.333 57.833 229.333 52.250 L 229.333 46.667 236.083 46.667 L 242.833 46.667 242.871 50.708 L 242.909 54.750 242.965 51.500 C 242.995 49.712,242.971 47.556,242.911 46.708 L 242.802 45.167 235.320 45.167 L 227.838 45.167 227.794 50.708 M373.794 50.708 L 373.750 56.250 372.500 56.304 C 371.813 56.334,370.556 56.308,369.708 56.247 L 368.167 56.136 368.167 55.494 C 368.167 55.142,368.110 54.818,368.042 54.776 C 367.973 54.733,367.943 55.066,367.974 55.516 L 368.032 56.333 368.849 56.333 L 369.667 56.333 369.667 57.083 L 369.667 57.833 372.500 57.833 L 375.333 57.833 375.333 52.250 L 375.333 46.667 382.083 46.667 L 388.833 46.667 388.871 50.708 L 388.909 54.750 388.965 51.500 C 388.995 49.712,388.971 47.556,388.911 46.708 L 388.802 45.167 381.320 45.167 L 373.838 45.167 373.794 50.708 M179.187 48.500 C 179.184 48.637,179.285 48.975,179.411 49.250 C 179.705 49.894,179.710 49.594,179.417 48.833 C 179.293 48.512,179.190 48.362,179.187 48.500 M80.042 48.958 C 83.135 48.984,88.198 48.984,91.292 48.958 C 94.385 48.933,91.854 48.912,85.667 48.912 C 79.479 48.912,76.948 48.933,80.042 48.958 M66.233 49.750 L 66.250 50.583 66.875 50.635 C 67.477 50.685,67.500 50.710,67.500 51.310 C 67.500 51.653,67.577 52.011,67.672 52.106 C 67.777 52.210,67.826 53.055,67.797 54.264 L 67.750 56.250 64.083 56.297 C 59.730 56.353,59.879 56.381,58.693 55.284 C 57.474 54.156,57.939 54.752,59.304 56.068 C 61.192 57.886,61.004 57.831,65.375 57.832 L 69.167 57.833 69.167 55.000 L 69.167 52.167 68.509 52.167 L 67.852 52.167 67.801 51.375 L 67.750 50.583 67.050 50.533 L 66.351 50.482 66.283 49.699 L 66.216 48.917 66.233 49.750 M74.235 51.833 C 74.235 53.438,74.260 54.094,74.291 53.292 C 74.321 52.490,74.321 51.177,74.291 50.375 C 74.260 49.573,74.235 50.229,74.235 51.833 M358.400 49.750 C 358.417 50.583,358.417 50.583,359.018 50.634 L 359.620 50.684 359.726 51.800 C 359.784 52.414,359.831 53.685,359.832 54.625 L 359.833 56.333 348.002 56.333 C 334.422 56.333,335.224 56.418,333.501 54.795 C 332.988 54.312,333.284 54.632,334.159 55.506 C 336.686 58.032,335.379 57.833,349.515 57.833 L 361.333 57.833 361.333 55.010 L 361.333 52.186 360.625 52.135 L 359.917 52.083 359.866 51.292 L 359.815 50.500 359.167 50.500 L 358.518 50.500 358.450 49.708 L 358.383 48.917 358.400 49.750 M179.845 50.417 C 179.845 50.508,179.952 50.771,180.083 51.000 C 180.214 51.229,180.322 51.342,180.322 51.250 C 180.322 51.158,180.214 50.896,180.083 50.667 C 179.952 50.438,179.845 50.325,179.845 50.417 M30.292 50.622 L 31.000 50.686 31.000 51.393 C 31.000 51.782,31.078 52.178,31.172 52.272 C 31.277 52.377,31.326 53.194,31.297 54.347 L 31.250 56.250 19.421 56.293 C 5.786 56.342,6.678 56.434,4.862 54.793 C 4.190 54.185,4.358 54.388,5.287 55.306 C 6.133 56.140,7.220 57.032,7.704 57.287 L 8.583 57.750 20.712 57.796 L 32.841 57.842 32.796 55.046 L 32.750 52.250 32.042 52.199 C 31.359 52.149,31.333 52.127,31.333 51.587 C 31.333 50.626,31.214 50.497,30.357 50.529 L 29.583 50.558 30.292 50.622 M215.006 52.402 C 214.314 54.017,211.861 56.955,210.417 57.898 C 210.050 58.137,209.338 58.632,208.833 58.997 C 207.126 60.233,204.471 61.396,202.551 61.749 C 201.891 61.870,201.254 62.030,201.134 62.104 C 201.015 62.178,199.642 62.284,198.083 62.341 L 195.250 62.443 197.596 62.472 C 202.315 62.529,206.162 61.296,209.917 58.523 C 210.375 58.185,211.328 57.626,212.035 57.281 C 213.936 56.355,214.829 55.150,215.249 52.948 C 215.523 51.510,215.455 51.356,215.006 52.402 M257.631 52.083 C 257.725 52.267,258.016 52.604,258.276 52.833 L 258.750 53.249 258.251 52.666 C 257.461 51.743,257.450 51.732,257.631 52.083 M180.902 52.555 C 181.057 53.041,182.123 54.577,182.849 55.362 C 183.369 55.925,183.329 55.845,182.666 55.000 C 182.198 54.404,181.588 53.542,181.310 53.083 C 181.032 52.625,180.849 52.387,180.902 52.555 M331.000 52.552 C 331.000 52.581,331.244 52.825,331.542 53.094 L 332.083 53.583 331.594 53.042 C 331.138 52.537,331.000 52.423,331.000 52.552 M2.500 52.719 C 2.500 52.748,2.744 52.991,3.042 53.260 L 3.583 53.750 3.094 53.208 C 2.638 52.703,2.500 52.590,2.500 52.719 M184.083 56.833 C 184.441 57.200,184.772 57.500,184.818 57.500 C 184.863 57.500,184.608 57.200,184.250 56.833 C 183.892 56.467,183.562 56.167,183.516 56.167 C 183.470 56.167,183.725 56.467,184.083 56.833 M185.393 57.962 C 185.525 58.175,186.500 58.897,186.500 58.781 C 186.500 58.740,186.225 58.496,185.888 58.240 C 185.552 57.983,185.329 57.858,185.393 57.962 M188.000 59.818 C 188.229 60.006,188.492 60.160,188.583 60.160 C 188.762 60.162,188.460 59.931,187.917 59.650 C 187.695 59.535,187.723 59.592,188.000 59.818 " stroke="none" fill="#565d60" fill-rule="evenodd"></path><path id="path3" d="M291.950 1.444 C 292.023 1.635,291.994 1.682,291.855 1.597 C 291.583 1.428,290.168 2.026,290.167 2.310 C 290.167 2.468,290.041 2.505,289.750 2.432 C 289.180 2.288,289.214 2.629,289.792 2.849 L 290.250 3.024 289.667 3.509 C 289.346 3.775,288.323 4.446,287.394 4.999 C 286.465 5.551,285.612 6.115,285.500 6.251 C 285.387 6.386,285.018 6.572,284.681 6.663 C 284.081 6.824,283.014 7.736,283.203 7.926 C 283.311 8.033,285.053 7.169,285.139 6.965 C 285.169 6.893,285.319 6.832,285.472 6.831 C 285.625 6.830,286.072 6.645,286.465 6.421 C 287.484 5.838,288.301 5.631,288.366 5.938 C 288.405 6.123,288.684 6.044,289.583 5.591 C 290.225 5.268,291.537 4.659,292.500 4.237 C 293.462 3.814,294.486 3.363,294.775 3.234 C 295.536 2.895,296.335 2.924,296.328 3.292 C 296.318 3.821,295.709 4.380,295.240 4.291 C 294.896 4.225,294.836 4.262,294.926 4.480 C 294.987 4.628,295.077 4.885,295.124 5.051 C 295.180 5.247,295.305 5.316,295.480 5.250 C 295.696 5.167,295.709 5.189,295.542 5.357 C 295.427 5.472,295.333 5.638,295.333 5.726 C 295.333 5.813,295.488 5.706,295.678 5.487 C 295.881 5.253,295.948 5.066,295.840 5.030 C 295.740 4.997,295.888 4.695,296.169 4.360 C 296.449 4.024,296.746 3.665,296.828 3.560 C 296.911 3.456,296.937 3.212,296.886 3.019 C 296.821 2.768,296.872 2.667,297.064 2.667 C 297.348 2.667,297.390 2.477,297.234 1.896 C 297.142 1.555,297.108 1.550,296.376 1.771 C 295.469 2.044,295.279 2.056,295.417 1.833 C 295.580 1.570,294.766 1.639,294.407 1.919 C 294.101 2.158,294.111 2.166,294.583 2.073 L 295.083 1.974 294.667 2.316 C 294.171 2.725,293.584 2.788,293.726 2.419 C 293.779 2.282,293.768 2.188,293.702 2.208 C 293.637 2.229,293.232 2.003,292.803 1.706 C 291.914 1.091,291.802 1.057,291.950 1.444 M292.892 1.911 C 293.244 2.178,293.126 2.500,292.676 2.500 C 292.484 2.500,292.343 2.346,292.293 2.083 C 292.203 1.616,292.420 1.554,292.892 1.911 M295.917 2.500 C 295.860 2.592,295.664 2.667,295.480 2.667 C 295.297 2.667,295.193 2.592,295.250 2.500 C 295.307 2.408,295.503 2.333,295.686 2.333 C 295.870 2.333,295.973 2.408,295.917 2.500 M292.558 3.089 C 292.422 3.444,291.617 3.833,291.019 3.833 C 290.746 3.833,290.329 3.906,290.094 3.996 C 289.467 4.234,289.572 4.064,290.357 3.568 C 290.737 3.328,291.393 3.074,291.816 3.002 C 292.238 2.931,292.600 2.864,292.620 2.853 C 292.640 2.842,292.612 2.949,292.558 3.089 M237.042 3.444 C 236.927 3.490,236.833 3.606,236.833 3.701 C 236.833 3.806,236.932 3.792,237.083 3.667 C 237.284 3.500,237.391 3.504,237.625 3.688 C 237.889 3.895,237.895 3.889,237.688 3.625 C 237.450 3.322,237.388 3.304,237.042 3.444 M74.471 5.802 C 74.277 6.049,74.283 6.058,74.515 5.876 C 74.661 5.763,74.830 5.719,74.890 5.779 C 75.081 5.970,75.010 6.140,74.708 6.218 C 74.489 6.276,74.509 6.299,74.792 6.314 C 75.055 6.328,75.167 6.240,75.167 6.018 C 75.167 5.588,74.741 5.456,74.471 5.802 M281.381 7.417 C 281.382 7.875,281.415 8.043,281.453 7.789 C 281.491 7.536,281.490 7.161,281.451 6.956 C 281.411 6.751,281.380 6.958,281.381 7.417 M293.539 7.338 C 293.240 7.611,293.057 7.833,293.133 7.833 C 293.209 7.833,293.487 7.608,293.750 7.333 C 294.363 6.694,294.244 6.697,293.539 7.338 M222.617 8.105 C 222.331 8.391,222.503 8.856,222.875 8.803 C 223.120 8.768,223.250 8.635,223.250 8.419 C 223.250 8.088,222.838 7.884,222.617 8.105 M223.128 8.469 C 223.165 8.578,223.076 8.667,222.931 8.667 C 222.785 8.667,222.667 8.548,222.667 8.403 C 222.667 8.108,223.025 8.160,223.128 8.469 M282.917 8.576 C 282.320 8.979,281.480 9.079,281.614 8.731 C 281.696 8.517,281.524 8.582,280.988 8.968 C 278.983 10.414,278.560 10.801,278.167 11.555 L 277.750 12.354 278.160 12.690 C 278.663 13.103,281.347 12.916,282.840 12.364 C 283.180 12.238,283.367 12.314,283.998 12.838 C 285.084 13.740,286.833 14.552,286.833 14.155 C 286.833 14.070,286.680 14.000,286.493 14.000 C 286.116 14.000,284.889 13.420,284.500 13.059 C 283.852 12.456,283.234 12.092,282.942 12.141 C 282.765 12.171,282.560 12.096,282.485 11.975 C 282.374 11.796,282.130 11.812,281.159 12.062 C 279.640 12.453,279.387 12.279,280.172 11.384 C 280.704 10.777,282.244 9.667,282.554 9.667 C 282.772 9.667,284.000 8.664,284.000 8.486 C 284.000 8.259,283.299 8.318,282.917 8.576 M292.085 8.561 C 291.193 9.069,291.053 9.194,291.417 9.152 C 291.600 9.131,291.952 9.170,292.199 9.239 C 292.509 9.326,292.767 9.282,293.028 9.099 C 293.237 8.953,293.320 8.833,293.214 8.833 C 293.107 8.833,292.973 8.908,292.917 9.000 C 292.794 9.198,292.167 9.226,292.167 9.033 C 292.167 8.960,292.255 8.811,292.364 8.703 C 292.644 8.423,292.477 8.338,292.085 8.561 M61.563 9.909 C 61.512 10.042,61.519 10.229,61.578 10.325 C 61.714 10.545,62.167 10.555,62.167 10.339 C 62.167 10.250,62.054 10.220,61.917 10.273 C 61.754 10.335,61.667 10.269,61.667 10.083 C 61.667 9.894,61.754 9.831,61.925 9.897 C 62.074 9.954,62.141 9.926,62.082 9.831 C 61.933 9.591,61.670 9.630,61.563 9.909 M289.718 11.595 L 289.250 12.024 289.792 11.647 C 290.090 11.440,290.333 11.247,290.333 11.219 C 290.333 11.087,290.149 11.200,289.718 11.595 M250.276 15.000 C 250.521 15.275,250.841 15.495,250.986 15.489 C 251.161 15.482,251.127 15.429,250.886 15.332 C 250.686 15.251,250.439 15.031,250.338 14.843 C 250.237 14.654,250.082 14.500,249.993 14.500 C 249.904 14.500,250.031 14.725,250.276 15.000 M85.721 15.920 C 85.522 16.147,85.424 16.333,85.503 16.333 C 85.583 16.333,85.756 16.178,85.889 15.989 C 86.130 15.645,86.130 15.645,86.557 16.073 C 86.792 16.308,87.114 16.500,87.271 16.500 C 87.514 16.500,87.496 16.570,87.154 16.958 L 86.750 17.417 87.208 17.013 C 87.754 16.531,87.788 16.333,87.325 16.333 C 87.138 16.333,86.810 16.146,86.598 15.917 C 86.130 15.411,86.166 15.411,85.721 15.920 M248.696 15.978 C 248.909 16.241,249.109 16.434,249.141 16.406 C 249.232 16.328,248.600 15.511,248.446 15.505 C 248.370 15.502,248.482 15.715,248.696 15.978 M251.333 15.730 C 251.333 15.856,251.221 16.053,251.083 16.167 C 250.946 16.281,250.833 16.583,250.833 16.839 C 250.833 17.286,250.814 17.297,250.336 17.117 C 250.016 16.996,249.780 16.986,249.677 17.089 C 249.574 17.192,249.678 17.257,249.967 17.270 C 250.214 17.281,250.582 17.345,250.784 17.412 C 251.124 17.526,251.145 17.493,251.060 16.974 C 250.990 16.541,251.049 16.341,251.318 16.097 C 251.692 15.759,251.771 15.500,251.500 15.500 C 251.408 15.500,251.333 15.603,251.333 15.730 M249.000 17.083 C 249.000 17.313,249.065 17.500,249.144 17.500 C 249.223 17.500,249.251 17.313,249.207 17.083 C 249.164 16.854,249.099 16.667,249.064 16.667 C 249.029 16.667,249.000 16.854,249.000 17.083 M85.169 17.875 C 85.166 18.202,85.582 18.271,85.766 17.974 C 85.843 17.849,85.811 17.827,85.674 17.912 C 85.551 17.988,85.402 17.947,85.317 17.813 C 85.202 17.631,85.171 17.644,85.169 17.875 M194.695 23.865 C 193.497 24.087,193.695 24.204,194.974 24.029 C 196.252 23.854,196.250 23.923,194.957 24.744 C 183.086 32.281,183.149 53.564,195.066 61.388 L 196.215 62.142 195.649 62.211 C 195.338 62.249,196.171 62.289,197.500 62.299 C 198.829 62.310,200.254 62.246,200.667 62.156 C 201.079 62.067,201.942 61.889,202.583 61.761 C 204.516 61.376,207.167 60.203,208.833 58.997 C 209.338 58.632,210.050 58.137,210.417 57.898 C 212.189 56.740,215.500 52.407,215.500 51.245 C 215.500 51.168,215.642 50.800,215.815 50.428 C 216.902 48.091,217.834 41.570,217.195 40.778 C 217.108 40.671,216.983 40.021,216.917 39.333 C 216.850 38.646,216.740 38.008,216.671 37.917 C 216.602 37.825,216.493 37.528,216.427 37.256 C 216.362 36.984,216.164 36.444,215.988 36.057 C 215.811 35.669,215.667 35.300,215.667 35.238 C 215.667 33.992,211.610 28.839,209.549 27.468 C 205.149 24.540,199.043 23.059,194.695 23.865 M192.523 24.358 C 192.215 24.446,191.996 24.551,192.035 24.591 C 192.075 24.630,192.439 24.559,192.845 24.431 C 193.674 24.171,193.394 24.107,192.523 24.358 M190.583 25.089 C 190.167 25.290,190.153 25.313,190.500 25.228 C 190.972 25.113,191.503 24.842,191.250 24.846 C 191.158 24.847,190.858 24.957,190.583 25.089 M187.271 26.830 C 186.572 27.286,186.000 27.697,186.000 27.743 C 186.000 27.815,188.456 26.266,188.651 26.071 C 188.902 25.820,188.370 26.113,187.271 26.830 M37.913 40.667 C 37.913 48.413,37.933 51.581,37.958 47.708 C 37.983 43.835,37.983 37.498,37.958 33.625 C 37.933 29.752,37.913 32.921,37.913 40.667 M74.409 32.750 C 74.409 36.142,74.431 37.506,74.458 35.781 C 74.485 34.056,74.485 31.281,74.458 29.614 C 74.431 27.947,74.409 29.358,74.409 32.750 M80.048 27.417 C 80.049 27.875,80.081 28.043,80.120 27.789 C 80.158 27.536,80.157 27.161,80.117 26.956 C 80.078 26.751,80.046 26.958,80.048 27.417 M96.908 32.250 C 96.908 35.367,96.931 36.618,96.958 35.031 C 96.986 33.444,96.985 30.894,96.958 29.364 C 96.931 27.835,96.908 29.133,96.908 32.250 M110.913 40.667 C 110.913 48.413,110.933 51.581,110.958 47.708 C 110.983 43.835,110.983 37.498,110.958 33.625 C 110.933 29.752,110.913 32.921,110.913 40.667 M175.811 29.542 L 175.885 32.500 170.276 32.500 L 164.667 32.500 164.667 43.572 L 164.667 54.644 164.307 54.758 C 164.109 54.821,163.134 54.820,162.140 54.756 L 160.333 54.639 160.333 55.379 L 160.333 56.118 161.458 56.225 C 162.077 56.283,163.352 56.331,164.292 56.332 L 166.000 56.333 166.000 45.169 L 166.000 34.004 171.625 33.961 L 177.250 33.917 177.304 32.667 C 177.334 31.979,177.308 30.723,177.247 29.875 L 177.136 28.333 176.493 28.333 L 175.851 28.333 175.793 27.458 C 175.762 26.977,175.770 27.915,175.811 29.542 M220.395 28.333 C 220.395 29.296,220.423 29.690,220.456 29.208 C 220.490 28.727,220.490 27.940,220.456 27.458 C 220.423 26.977,220.395 27.371,220.395 28.333 M256.912 38.167 C 256.912 44.538,256.933 47.144,256.958 43.958 C 256.984 40.773,256.984 35.560,256.958 32.375 C 256.933 29.190,256.912 31.796,256.912 38.167 M321.786 27.667 C 322.049 31.199,322.003 52.362,321.732 52.956 C 320.983 54.597,318.925 55.406,317.662 54.556 C 316.999 54.111,318.102 55.267,318.900 55.855 C 320.134 56.764,322.062 56.353,322.917 55.000 L 323.333 54.340 323.332 42.462 C 323.331 35.929,323.283 30.077,323.225 29.458 L 323.118 28.333 322.485 28.333 L 321.851 28.333 321.785 27.542 C 321.748 27.106,321.749 27.162,321.786 27.667 M358.313 28.250 C 358.370 29.075,358.416 30.350,358.416 31.083 L 358.417 32.417 347.208 32.460 L 336.000 32.502 336.000 40.654 L 336.000 48.805 337.257 48.923 C 337.949 48.988,338.562 48.994,338.619 48.937 C 338.676 48.880,338.410 48.833,338.028 48.833 L 337.333 48.833 337.333 41.417 L 337.333 34.000 348.583 34.000 L 359.833 34.000 359.832 32.292 C 359.831 31.352,359.784 30.081,359.726 29.467 L 359.620 28.351 359.018 28.300 C 358.442 28.252,358.412 28.219,358.314 27.500 C 358.257 27.087,358.257 27.425,358.313 28.250 M372.274 27.667 C 372.305 28.171,372.376 30.621,372.434 33.113 L 372.538 37.642 373.776 37.758 C 374.458 37.822,375.062 37.827,375.119 37.770 C 375.176 37.713,374.910 37.667,374.528 37.667 L 373.833 37.667 373.832 34.125 C 373.831 32.177,373.783 30.077,373.725 29.458 L 373.618 28.333 372.985 28.333 L 372.351 28.333 372.285 27.542 C 372.248 27.106,372.243 27.162,372.274 27.667 M389.075 32.167 C 389.075 35.237,389.097 36.494,389.125 34.958 C 389.152 33.423,389.152 30.910,389.125 29.375 C 389.097 27.840,389.075 29.096,389.075 32.167 M394.714 27.417 C 394.716 27.875,394.748 28.043,394.786 27.789 C 394.825 27.536,394.824 27.161,394.784 26.956 C 394.744 26.751,394.713 26.958,394.714 27.417 M147.401 29.500 C 147.401 31.012,147.426 31.631,147.457 30.875 C 147.488 30.119,147.488 28.881,147.457 28.125 C 147.426 27.369,147.401 27.988,147.401 29.500 M285.286 27.750 C 285.546 30.883,285.505 49.732,285.237 50.551 C 284.770 51.981,283.452 53.833,282.902 53.833 C 282.833 53.833,282.658 53.935,282.513 54.060 C 281.660 54.796,281.104 54.833,271.036 54.833 L 261.465 54.833 260.613 54.405 C 259.779 53.986,259.768 53.985,260.089 54.354 C 260.782 55.151,261.281 55.535,262.138 55.931 L 263.027 56.341 272.809 56.296 L 282.591 56.250 283.721 55.693 C 285.063 55.033,286.119 53.819,286.555 52.438 C 286.845 51.517,286.988 32.243,286.725 29.458 L 286.618 28.333 285.985 28.333 C 285.361 28.333,285.351 28.322,285.284 27.625 C 285.247 27.235,285.248 27.292,285.286 27.750 M93.582 27.502 C 93.519 27.605,93.512 27.734,93.567 27.789 C 93.622 27.844,93.667 27.792,93.667 27.674 C 93.667 27.504,93.725 27.507,93.944 27.688 C 94.180 27.883,94.209 27.881,94.142 27.677 C 94.038 27.363,93.728 27.266,93.582 27.502 M303.917 33.000 C 307.032 36.117,309.619 38.667,309.665 38.667 C 309.711 38.667,307.199 36.117,304.083 33.000 C 300.968 29.883,298.381 27.333,298.335 27.333 C 298.289 27.333,300.801 29.883,303.917 33.000 M2.909 28.375 L 2.250 29.083 2.958 28.425 C 3.348 28.062,3.667 27.743,3.667 27.716 C 3.667 27.590,3.522 27.716,2.909 28.375 M184.143 29.458 C 182.597 31.054,181.089 33.000,181.398 33.000 C 181.444 33.000,181.767 32.570,182.116 32.044 C 182.465 31.519,183.453 30.356,184.312 29.461 C 185.171 28.566,185.839 27.833,185.796 27.833 C 185.752 27.833,185.009 28.565,184.143 29.458 M102.803 39.148 L 102.857 50.045 102.486 51.038 C 102.075 52.136,100.817 53.648,99.948 54.089 C 98.401 54.873,98.639 54.860,87.027 54.803 L 76.083 54.750 76.141 55.445 L 76.198 56.139 77.557 56.246 C 78.305 56.305,83.679 56.330,89.500 56.302 L 100.083 56.250 101.001 55.799 C 102.198 55.211,103.273 54.143,103.815 53.000 L 104.250 52.083 104.302 41.750 C 104.331 36.067,104.306 30.730,104.246 29.891 L 104.138 28.365 103.444 28.307 L 102.750 28.250 102.803 39.148 M226.169 28.749 C 226.173 29.454,226.354 29.664,227.055 29.778 L 227.667 29.877 227.667 29.122 L 227.667 28.367 226.917 28.307 C 226.180 28.249,226.167 28.257,226.169 28.749 M248.862 29.333 C 248.928 29.929,248.987 35.871,248.991 42.538 L 249.000 54.660 248.569 54.769 C 248.331 54.828,247.356 54.825,246.402 54.761 L 244.667 54.644 244.667 55.381 L 244.667 56.118 245.792 56.225 C 246.410 56.283,247.685 56.331,248.625 56.332 L 250.333 56.333 250.332 43.458 C 250.331 36.377,250.284 30.084,250.226 29.473 L 250.121 28.363 249.431 28.307 L 248.741 28.250 248.862 29.333 M262.794 38.525 L 262.838 48.799 264.179 48.918 C 264.916 48.983,265.565 48.991,265.621 48.935 C 265.677 48.879,265.410 48.833,265.028 48.833 L 264.333 48.833 264.332 39.708 C 264.331 34.690,264.284 30.084,264.226 29.473 L 264.121 28.363 263.436 28.307 L 262.750 28.250 262.794 38.525 M29.710 30.375 L 29.750 32.417 18.542 32.460 L 7.333 32.502 7.333 40.654 L 7.333 48.805 8.570 48.921 C 9.250 48.985,9.906 48.997,10.028 48.948 C 10.150 48.899,9.894 48.854,9.458 48.846 L 8.667 48.833 8.667 41.418 L 8.667 34.002 19.958 33.959 L 31.250 33.917 31.297 32.014 C 31.326 30.861,31.277 30.044,31.172 29.939 C 31.078 29.844,31.000 29.444,31.000 29.050 L 31.000 28.333 30.335 28.333 L 29.671 28.333 29.710 30.375 M80.167 32.978 L 80.167 37.624 81.515 37.741 C 82.257 37.806,82.907 37.816,82.959 37.763 C 83.012 37.710,82.781 37.667,82.444 37.667 L 81.833 37.667 81.833 34.275 C 81.833 32.410,81.785 30.310,81.726 29.608 L 81.618 28.333 80.892 28.333 L 80.167 28.333 80.167 32.978 M394.968 41.486 L 395.018 54.638 394.649 54.756 C 394.446 54.820,393.467 54.820,392.473 54.756 L 390.667 54.639 390.667 55.379 L 390.667 56.118 391.792 56.225 C 392.410 56.283,393.685 56.331,394.625 56.332 L 396.333 56.333 396.332 43.458 C 396.331 36.377,396.283 30.077,396.225 29.458 L 396.118 28.333 395.518 28.333 L 394.917 28.333 394.968 41.486 M138.532 29.583 C 139.317 30.651,139.357 30.954,139.296 35.380 C 139.232 40.019,139.239 39.983,137.998 41.528 C 136.386 43.533,136.216 43.562,125.711 43.622 L 116.838 43.672 116.794 49.211 L 116.750 54.750 114.665 54.709 L 112.581 54.667 112.640 55.403 L 112.698 56.139 114.057 56.248 C 114.805 56.308,116.054 56.333,116.833 56.303 L 118.250 56.250 118.294 50.708 L 118.338 45.167 126.961 45.165 C 136.533 45.164,136.757 45.142,138.369 44.033 C 140.444 42.605,140.750 41.658,140.750 36.667 C 140.750 31.937,140.707 31.759,139.171 30.167 C 138.685 29.662,138.398 29.400,138.532 29.583 M228.333 30.032 C 229.135 30.295,229.131 30.266,228.473 30.961 C 227.380 32.118,227.104 32.741,227.315 33.581 C 227.417 33.984,227.500 34.702,227.500 35.177 C 227.500 36.087,227.478 36.102,226.625 35.751 C 226.366 35.645,226.333 35.744,226.333 36.631 L 226.333 37.632 227.676 37.751 C 228.415 37.816,229.065 37.824,229.121 37.768 C 229.177 37.712,228.910 37.667,228.528 37.667 L 227.833 37.667 227.833 34.809 L 227.833 31.951 228.603 31.129 C 229.444 30.229,229.420 30.073,228.417 29.933 L 227.750 29.841 228.333 30.032 M66.441 30.699 C 66.384 30.911,66.337 32.838,66.336 34.983 C 66.333 38.893,66.049 40.833,65.478 40.833 C 65.398 40.833,65.333 40.934,65.333 41.057 C 65.333 41.331,64.304 42.292,63.448 42.817 C 62.433 43.439,61.765 43.553,58.549 43.655 L 55.515 43.750 56.883 45.178 C 57.635 45.964,57.953 46.282,57.590 45.886 L 56.931 45.167 59.781 45.167 C 64.587 45.167,66.665 44.038,67.589 40.928 C 67.941 39.745,67.935 33.558,67.581 32.405 C 67.187 31.122,66.574 30.204,66.441 30.699 M220.412 42.833 C 220.412 49.387,220.433 52.069,220.458 48.792 C 220.484 45.515,220.484 40.152,220.458 36.875 C 220.433 33.598,220.412 36.279,220.412 42.833 M149.137 33.041 L 149.197 33.789 150.206 33.894 C 150.761 33.953,152.892 34.000,154.941 34.000 L 158.667 34.000 158.667 33.250 L 158.667 32.500 154.958 32.499 C 152.919 32.498,150.761 32.451,150.164 32.395 L 149.078 32.292 149.137 33.041 M43.833 35.069 L 43.833 37.638 45.091 37.756 C 45.782 37.821,46.395 37.827,46.452 37.770 C 46.509 37.713,46.243 37.667,45.861 37.667 L 45.167 37.667 45.167 35.833 L 45.167 34.000 52.667 34.000 L 60.167 34.000 60.167 34.694 C 60.167 35.076,60.212 35.343,60.268 35.287 C 60.324 35.232,60.316 34.582,60.251 33.843 L 60.132 32.500 51.983 32.500 L 43.833 32.500 43.833 35.069 M116.833 35.069 L 116.833 37.638 118.091 37.756 C 118.782 37.821,119.395 37.827,119.452 37.770 C 119.509 37.713,119.281 37.667,118.944 37.667 L 118.333 37.667 118.333 35.833 L 118.333 34.000 125.833 34.000 L 133.333 34.000 133.366 35.958 C 133.390 37.378,133.416 37.596,133.462 36.750 C 133.497 36.108,133.475 34.890,133.414 34.042 L 133.302 32.500 125.068 32.500 L 116.833 32.500 116.833 35.069 M180.213 35.121 C 179.937 35.742,179.663 36.438,179.604 36.667 L 179.498 37.083 179.696 36.667 C 180.268 35.464,180.829 34.107,180.775 34.053 C 180.742 34.020,180.489 34.500,180.213 35.121 M60.389 36.667 C 60.389 37.354,60.419 37.635,60.455 37.292 C 60.491 36.948,60.491 36.385,60.455 36.042 C 60.419 35.698,60.389 35.979,60.389 36.667 M299.293 45.760 L 299.250 54.750 297.165 54.709 L 295.081 54.667 295.139 55.394 L 295.197 56.121 296.307 56.226 C 296.917 56.284,298.185 56.331,299.125 56.332 L 300.833 56.333 300.833 47.333 C 300.833 40.352,300.879 38.333,301.037 38.333 C 301.149 38.333,301.055 38.209,300.829 38.058 C 300.602 37.907,300.174 37.555,299.876 37.277 L 299.336 36.771 299.293 45.760 M179.167 37.917 C 179.050 38.334,178.992 38.714,179.039 38.761 C 179.086 38.808,179.212 38.497,179.319 38.069 C 179.574 37.058,179.444 36.928,179.167 37.917 M178.608 40.875 C 178.472 42.008,178.487 44.568,178.635 45.399 C 178.698 45.756,178.750 44.688,178.750 43.024 C 178.750 39.634,178.753 39.672,178.608 40.875 M310.000 47.250 C 313.803 51.054,316.953 54.167,316.998 54.167 C 317.044 54.167,313.970 51.054,310.167 47.250 C 306.363 43.446,303.214 40.333,303.168 40.333 C 303.122 40.333,306.197 43.446,310.000 47.250 M78.082 43.652 C 79.532 45.147,79.674 45.167,88.994 45.167 C 96.107 45.167,96.859 45.141,96.768 44.903 C 96.712 44.758,96.667 44.421,96.667 44.153 L 96.667 43.667 87.958 43.664 C 79.063 43.662,78.845 43.648,77.667 43.017 C 77.394 42.871,77.537 43.090,78.082 43.652 M43.794 49.208 L 43.750 54.750 41.625 54.707 L 39.500 54.664 39.500 55.391 L 39.500 56.118 40.625 56.225 C 41.244 56.283,42.519 56.331,43.458 56.332 L 45.167 56.333 45.167 50.750 L 45.167 45.167 46.702 45.167 L 48.237 45.167 48.922 45.792 C 49.298 46.135,48.964 45.799,48.178 45.045 L 46.750 43.672 45.294 43.670 L 43.838 43.667 43.794 49.208 M226.294 49.208 L 226.250 54.750 224.165 54.704 L 222.080 54.658 222.139 55.398 L 222.198 56.138 223.724 56.248 C 224.563 56.309,225.813 56.334,226.500 56.304 L 227.750 56.250 227.794 50.708 L 227.838 45.167 235.336 45.167 L 242.833 45.167 242.833 45.944 C 242.833 46.372,242.880 46.676,242.937 46.619 C 242.994 46.562,242.987 45.874,242.922 45.091 L 242.803 43.667 234.571 43.667 L 226.338 43.667 226.294 49.208 M372.500 49.163 L 372.500 54.660 372.073 54.768 C 371.838 54.827,370.843 54.823,369.862 54.759 L 368.079 54.644 368.139 55.391 L 368.198 56.138 369.724 56.248 C 370.563 56.309,371.813 56.334,372.500 56.304 L 373.750 56.250 373.794 50.708 L 373.838 45.167 381.336 45.167 C 387.211 45.167,388.838 45.212,388.856 45.375 C 388.868 45.490,388.929 47.646,388.991 50.167 L 389.104 54.750 389.135 51.093 C 389.153 49.082,389.081 46.588,388.976 45.551 L 388.785 43.667 380.642 43.667 L 372.500 43.667 372.500 49.163 M96.890 47.750 C 96.891 48.483,96.920 48.763,96.956 48.371 C 96.991 47.979,96.990 47.379,96.954 47.037 C 96.919 46.696,96.890 47.017,96.890 47.750 M51.417 48.167 C 52.238 48.992,52.947 49.667,52.993 49.667 C 53.039 49.667,52.405 48.992,51.583 48.167 C 50.762 47.342,50.053 46.667,50.007 46.667 C 49.961 46.667,50.595 47.342,51.417 48.167 M179.023 47.417 C 179.023 47.600,179.088 47.900,179.167 48.083 L 179.310 48.417 179.310 48.083 C 179.310 47.900,179.245 47.600,179.167 47.417 L 179.023 47.083 179.023 47.417 M74.402 51.833 C 74.402 53.438,74.427 54.094,74.457 53.292 C 74.488 52.490,74.488 51.177,74.457 50.375 C 74.427 49.573,74.402 50.229,74.402 51.833 M358.273 50.167 C 358.310 50.762,358.388 51.988,358.446 52.891 C 358.531 54.205,358.506 54.561,358.318 54.680 C 358.186 54.763,352.888 54.829,346.274 54.831 L 334.465 54.833 333.608 54.406 L 332.750 53.978 333.579 54.824 C 335.131 56.408,334.412 56.333,348.006 56.333 L 359.833 56.333 359.832 54.625 C 359.831 53.685,359.784 52.414,359.726 51.800 L 359.620 50.684 359.018 50.634 C 358.442 50.585,358.412 50.552,358.311 49.833 C 358.238 49.318,358.226 49.423,358.273 50.167 M179.746 49.808 C 179.931 50.409,180.653 52.000,180.740 52.000 C 180.825 52.000,179.852 49.638,179.711 49.500 C 179.664 49.454,179.679 49.593,179.746 49.808 M54.830 51.542 C 55.791 52.527,56.597 53.333,56.622 53.333 C 56.742 53.333,56.539 53.120,54.875 51.497 L 53.083 49.750 54.830 51.542 M66.208 52.662 L 66.250 54.750 62.453 54.795 C 59.858 54.825,58.539 54.780,58.287 54.650 C 58.064 54.535,58.208 54.762,58.650 55.220 C 59.723 56.332,59.788 56.345,64.001 56.295 L 67.750 56.250 67.797 54.264 C 67.826 53.055,67.777 52.210,67.672 52.106 C 67.577 52.011,67.500 51.656,67.500 51.318 C 67.500 50.721,67.479 50.700,66.833 50.638 L 66.167 50.575 66.208 52.662 M29.710 52.708 L 29.750 54.750 17.667 54.750 L 5.583 54.750 4.833 54.371 L 4.083 53.991 5.031 54.896 C 6.626 56.417,5.855 56.342,19.421 56.293 L 31.250 56.250 31.297 54.347 C 31.326 53.194,31.277 52.377,31.172 52.272 C 31.078 52.178,31.000 51.778,31.000 51.383 L 31.000 50.667 30.335 50.667 L 29.671 50.667 29.710 52.708 M181.255 52.958 C 181.505 53.394,181.818 53.862,181.951 54.000 C 182.084 54.137,181.915 53.781,181.577 53.208 C 181.238 52.635,180.925 52.167,180.881 52.167 C 180.838 52.167,181.006 52.523,181.255 52.958 M331.660 53.042 C 332.350 53.778,332.500 53.910,332.500 53.785 C 332.500 53.758,332.144 53.402,331.708 52.993 L 330.917 52.250 331.660 53.042 M3.083 53.167 C 3.441 53.533,3.772 53.833,3.818 53.833 C 3.863 53.833,3.608 53.533,3.250 53.167 C 2.892 52.800,2.562 52.500,2.516 52.500 C 2.470 52.500,2.725 52.800,3.083 53.167 M56.833 53.552 C 56.833 53.581,57.077 53.825,57.375 54.094 L 57.917 54.583 57.427 54.042 C 56.971 53.537,56.833 53.423,56.833 53.552 M183.473 55.946 C 183.952 56.512,184.670 57.247,185.068 57.580 C 186.020 58.375,187.167 59.216,187.167 59.118 C 187.167 59.075,186.735 58.719,186.208 58.326 C 185.681 57.934,184.654 57.006,183.925 56.265 C 182.763 55.082,182.707 55.043,183.473 55.946 M188.167 59.741 C 188.167 59.787,188.392 59.941,188.667 60.083 C 188.942 60.226,189.167 60.304,189.167 60.259 C 189.167 60.213,188.942 60.059,188.667 59.917 C 188.392 59.774,188.167 59.696,188.167 59.741 M189.333 60.412 C 189.333 60.544,190.542 61.014,190.637 60.919 C 190.684 60.872,190.681 60.833,190.631 60.833 C 190.582 60.833,190.269 60.720,189.937 60.581 C 189.605 60.442,189.333 60.366,189.333 60.412 M191.000 61.139 C 191.137 61.224,191.438 61.343,191.667 61.404 C 191.956 61.482,192.007 61.469,191.833 61.361 C 191.696 61.276,191.396 61.157,191.167 61.096 C 190.877 61.018,190.826 61.031,191.000 61.139 M193.417 61.928 C 193.875 62.056,194.438 62.155,194.667 62.149 C 194.896 62.144,194.633 62.037,194.083 61.913 C 192.783 61.620,192.345 61.630,193.417 61.928 " stroke="none" fill="#687486" fill-rule="evenodd"></path><path id="path4" d="M286.791 0.504 C 284.662 1.041,282.291 3.193,281.916 4.928 L 281.811 5.417 282.094 4.873 C 282.390 4.305,283.475 3.253,283.618 3.395 C 283.663 3.441,283.501 3.739,283.258 4.057 C 282.985 4.416,282.883 4.678,282.991 4.744 C 283.128 4.829,283.338 4.525,283.575 3.896 C 283.727 3.495,284.262 3.762,284.199 4.206 C 284.123 4.736,284.130 4.743,284.449 4.458 C 284.629 4.298,284.924 4.167,285.105 4.167 C 285.285 4.167,285.512 4.088,285.609 3.991 C 285.705 3.895,286.189 3.649,286.684 3.445 C 287.178 3.242,287.949 2.858,288.395 2.593 C 289.064 2.196,289.262 2.146,289.518 2.306 C 289.925 2.560,290.167 2.552,290.167 2.283 C 290.167 2.164,290.414 1.978,290.716 1.868 C 291.018 1.759,291.412 1.561,291.591 1.429 C 292.435 0.806,288.556 0.058,286.791 0.504 M292.417 4.254 C 289.838 5.413,288.282 6.237,288.198 6.490 C 288.142 6.656,288.208 6.686,288.436 6.598 C 289.364 6.236,289.322 6.635,288.365 7.263 C 287.811 7.627,287.568 7.905,287.531 8.218 C 287.499 8.487,287.271 8.805,286.948 9.033 C 286.656 9.239,286.342 9.472,286.250 9.550 C 286.158 9.628,285.789 9.855,285.430 10.054 C 284.778 10.415,284.460 10.833,284.837 10.833 C 284.946 10.833,285.271 10.645,285.559 10.414 C 285.848 10.184,286.158 9.939,286.250 9.870 C 286.342 9.801,287.129 9.421,288.000 9.026 C 288.871 8.632,289.921 8.109,290.333 7.866 C 290.746 7.623,291.458 7.249,291.917 7.036 C 292.375 6.822,293.125 6.470,293.583 6.252 C 294.934 5.612,294.503 7.033,293.106 7.827 C 292.741 8.035,292.167 8.814,292.167 9.102 C 292.167 9.248,292.659 9.151,293.106 8.918 C 293.369 8.781,293.686 8.668,293.812 8.668 C 294.133 8.666,292.785 9.941,292.309 10.088 C 290.522 10.641,288.375 12.927,289.176 13.422 C 289.505 13.626,289.251 14.053,288.667 14.278 C 288.110 14.493,288.137 14.499,289.250 14.415 C 293.739 14.078,296.684 9.438,295.172 5.083 C 294.516 3.194,294.674 3.241,292.417 4.254 M284.256 8.768 C 284.065 8.959,284.038 9.095,284.162 9.244 C 284.286 9.394,284.243 9.571,284.008 9.869 L 283.681 10.284 284.075 10.209 C 284.586 10.111,285.528 9.167,285.115 9.167 C 284.944 9.167,284.833 9.035,284.833 8.833 C 284.833 8.431,284.618 8.406,284.256 8.768 M288.000 13.750 C 288.000 13.903,288.081 14.001,288.179 13.968 C 288.278 13.935,288.358 13.837,288.358 13.750 C 288.358 13.663,288.278 13.565,288.179 13.532 C 288.081 13.499,288.000 13.597,288.000 13.750 M287.167 14.333 C 287.809 14.539,288.152 14.539,287.833 14.333 C 287.696 14.244,287.396 14.178,287.167 14.186 L 286.750 14.200 287.167 14.333 M214.372 16.388 C 214.118 16.820,213.882 16.978,213.314 17.101 L 212.583 17.259 213.069 17.715 C 213.477 18.099,213.549 18.290,213.526 18.919 C 213.510 19.330,213.571 19.667,213.660 19.667 C 213.750 19.667,213.785 19.568,213.739 19.448 C 213.635 19.177,214.258 18.577,214.402 18.809 C 214.457 18.899,214.371 19.106,214.210 19.269 C 213.930 19.551,213.932 19.558,214.250 19.425 C 214.644 19.260,214.934 19.259,215.500 19.420 L 215.917 19.538 215.518 19.243 C 215.141 18.964,215.135 18.935,215.417 18.729 C 215.652 18.557,215.674 18.460,215.520 18.275 C 215.367 18.090,215.380 18.018,215.579 17.941 C 215.719 17.888,215.833 17.729,215.833 17.589 C 215.833 17.426,215.988 17.333,216.259 17.333 L 216.685 17.333 216.230 17.725 C 215.799 18.096,215.785 18.154,215.955 18.850 L 216.135 19.583 216.117 18.961 C 216.103 18.497,216.213 18.220,216.549 17.869 C 217.141 17.252,217.123 17.190,216.322 17.062 C 215.865 16.989,215.558 16.822,215.380 16.550 C 215.202 16.279,215.076 16.210,214.995 16.341 C 214.905 16.488,214.844 16.486,214.749 16.332 C 214.679 16.219,214.725 16.065,214.854 15.984 C 214.993 15.895,215.008 15.837,214.891 15.836 C 214.786 15.834,214.552 16.083,214.372 16.388 M54.567 16.794 C 54.466 16.862,54.294 17.085,54.186 17.292 C 54.077 17.498,53.874 17.667,53.734 17.667 C 53.595 17.667,53.518 17.728,53.565 17.803 C 53.611 17.878,53.417 17.906,53.134 17.864 C 52.774 17.811,52.655 17.846,52.738 17.980 C 52.803 18.086,52.938 18.122,53.037 18.060 C 53.138 17.998,53.171 18.025,53.111 18.122 C 53.052 18.217,53.115 18.388,53.252 18.502 C 53.388 18.615,53.500 18.972,53.500 19.296 C 53.500 19.856,53.515 19.871,53.805 19.609 C 54.176 19.273,54.400 19.252,54.280 19.564 C 54.219 19.724,54.286 19.771,54.495 19.716 C 54.663 19.672,54.976 19.731,55.191 19.846 C 55.548 20.036,55.563 20.030,55.355 19.777 C 55.229 19.625,54.966 19.491,54.771 19.481 C 54.487 19.465,54.475 19.446,54.710 19.385 C 54.872 19.343,54.966 19.247,54.921 19.173 C 54.875 19.098,54.967 19.048,55.127 19.060 C 55.291 19.073,55.396 18.985,55.369 18.857 C 55.343 18.733,55.399 18.539,55.493 18.425 C 55.587 18.312,55.610 18.166,55.545 18.101 C 55.480 18.035,55.537 17.912,55.671 17.827 C 55.878 17.696,55.871 17.671,55.629 17.669 C 55.471 17.668,55.226 17.442,55.083 17.167 C 54.795 16.609,54.818 16.626,54.567 16.794 M56.221 17.943 C 56.282 18.004,56.182 18.158,55.999 18.286 C 55.747 18.462,55.673 18.689,55.693 19.218 C 55.719 19.892,55.722 19.896,55.789 19.333 C 55.827 19.005,56.048 18.549,56.293 18.292 C 56.674 17.891,56.690 17.833,56.420 17.833 C 56.250 17.833,56.161 17.883,56.221 17.943 M229.066 18.471 C 228.471 18.968,228.700 19.777,229.431 19.762 C 229.828 19.754,229.999 19.672,230.000 19.492 C 230.000 19.350,230.094 19.134,230.208 19.012 C 230.375 18.836,230.374 18.776,230.205 18.714 C 230.089 18.672,229.888 18.531,229.759 18.402 C 229.472 18.115,229.495 18.112,229.066 18.471 M67.388 18.990 C 67.126 19.201,67.077 19.345,67.194 19.555 C 67.281 19.709,67.315 19.895,67.270 19.968 C 67.225 20.041,67.446 20.100,67.761 20.100 C 68.100 20.100,68.333 20.017,68.333 19.897 C 68.333 19.785,68.369 19.594,68.412 19.472 C 68.569 19.030,67.790 18.664,67.388 18.990 M62.934 26.764 C 62.796 27.123,62.805 27.167,63.016 27.167 C 63.116 27.167,63.406 27.314,63.659 27.495 L 64.119 27.822 63.792 27.161 C 63.451 26.472,63.108 26.313,62.934 26.764 M240.531 27.250 C 240.325 27.487,239.989 27.667,239.751 27.667 C 239.276 27.667,239.197 28.012,239.596 28.344 C 239.781 28.498,239.829 28.719,239.759 29.094 L 239.659 29.625 240.371 29.610 C 240.763 29.601,241.215 29.656,241.375 29.732 C 241.616 29.845,241.667 29.788,241.667 29.404 C 241.667 29.148,241.825 28.770,242.017 28.565 C 242.404 28.153,242.321 27.833,241.828 27.833 C 241.642 27.833,241.401 27.625,241.250 27.333 C 240.939 26.731,240.978 26.736,240.531 27.250 M66.008 29.655 L 66.725 30.337 67.112 29.973 C 67.746 29.377,67.653 29.295,66.104 29.084 L 65.291 28.973 66.008 29.655 M219.764 30.144 C 219.715 30.224,219.823 30.423,220.004 30.587 C 220.324 30.877,220.333 30.873,220.333 30.442 C 220.333 30.014,219.964 29.821,219.764 30.144 M72.496 39.421 C 72.384 39.556,72.174 39.667,72.030 39.667 C 71.825 39.667,71.811 39.711,71.967 39.867 C 72.077 39.977,72.167 40.189,72.167 40.339 C 72.167 40.826,73.085 40.690,73.279 40.174 C 73.494 39.607,72.853 38.991,72.496 39.421 M217.700 41.200 C 217.452 41.448,217.645 41.833,218.018 41.833 C 218.216 41.833,218.333 41.716,218.333 41.518 C 218.333 41.145,217.948 40.952,217.700 41.200 " stroke="none" fill="#bc5245" fill-rule="evenodd"></path></g></svg>